<?xml version="1.0" standalone="no"?><!DOCTYPE svg PUBLIC "-//W3C//DTD SVG 1.1//EN" "http://www.w3.org/Graphics/SVG/1.1/DTD/svg11.dtd"><svg t="1639464967278" class="icon" viewBox="0 0 1024 1024" version="1.1" xmlns="http://www.w3.org/2000/svg" p-id="26798" xmlns:xlink="http://www.w3.org/1999/xlink" width="32" height="32"><defs><style type="text/css">@font-face { font-family: element-icons; src: url("chrome-extension://moombeodfomdpjnpocobemoiaemednkg/fonts/element-icons.woff") format("woff"), url("chrome-extension://moombeodfomdpjnpocobemoiaemednkg/fonts/element-icons.ttf ") format("truetype"); }
</style></defs><path d="M508.2112 517.12m-436.2752 0a436.2752 436.2752 0 1 0 872.5504 0 436.2752 436.2752 0 1 0-872.5504 0Z" fill="#FFF7C5" p-id="26799"></path><path d="M508.2112 517.12m-340.8384 0a340.8384 340.8384 0 1 0 681.6768 0 340.8384 340.8384 0 1 0-681.6768 0Z" fill="#F9E230" p-id="26800"></path><path d="M169.728 556.5952a338.4832 301.4144 0 1 0 676.9664 0 338.4832 301.4144 0 1 0-676.9664 0Z" fill="#F6DB2D" p-id="26801"></path><path d="M176.64 596.0192a331.5712 261.9392 0 1 0 663.1424 0 331.5712 261.9392 0 1 0-663.1424 0Z" fill="#F5D228" p-id="26802"></path><path d="M188.5184 635.4944a319.6928 222.5152 0 1 0 639.3856 0 319.6928 222.5152 0 1 0-639.3856 0Z" fill="#F2C824" p-id="26803"></path><path d="M206.1312 674.9184a302.08 183.04 0 1 0 604.16 0 302.08 183.04 0 1 0-604.16 0Z" fill="#F0BF21" p-id="26804"></path><path d="M640.8192 568.9344h-101.5808v-49.408h101.5808c16.9472 0 30.72-13.7728 30.72-30.72s-13.7728-30.72-30.72-30.72H577.536l64.3584-66.5088a30.72 30.72 0 0 0-0.7168-43.4176 30.72 30.72 0 0 0-43.4176 0.7168L508.0064 441.6 415.9488 348.6208a30.68416 30.68416 0 0 0-43.4688-0.2048c-12.032 11.9296-12.1856 31.3856-0.2048 43.4176l65.5872 66.2528H376.2176c-16.9472 0-30.72 13.7728-30.72 30.72s13.7728 30.72 30.72 30.72h101.5808v49.408H376.2176c-16.9472 0-30.72 13.7728-30.72 30.72s13.7728 30.72 30.72 30.72h101.5808v79.6672c0 16.9472 13.7728 30.72 30.72 30.72s30.72-13.7728 30.72-30.72v-79.6672h101.5808c16.9472 0 30.72-13.7728 30.72-30.72 0-16.9984-13.7728-30.72-30.72-30.72z" fill="#FFFFFF" p-id="26805"></path></svg>