<?xml version="1.0" encoding="utf-8"?>
<svg version="1.1" xmlns:xlink="http://www.w3.org/1999/xlink" width="88px" height="88px" xmlns="http://www.w3.org/2000/svg">
  <g transform="matrix(1 0 0 1 -1040 -377 )">
    <path d="M 62.9823629882812 43.9459537109375  C 62.982462890625 33.3626291015625  54.4028798828125 24.7816470703125  43.8179564453125 24.7816470703125  C 33.2338325195312 24.7816470703125  24.6537498046875 33.3625291992188  24.6537498046875 43.9459537109375  C 24.6537498046875 54.5309770507812  33.2338325195312 63.1103602539063  43.8179564453125 63.1103602539063  C 54.4028798828125 63.1103602539063  62.9823629882812 54.5307772460937  62.9823629882812 43.9459537109375  Z M 60.244619140625 43.9459536132812  C 60.244619140625 53.017503125  52.8895059570312 60.3727163085937  43.8179564453125 60.3727163085937  C 34.74630703125 60.3727163085937  27.3913936523438 53.017503125  27.3913936523438 43.9459536132812  C 27.3913936523438 34.8744041015625  34.7465069335938 27.5193908203125  43.8179564453125 27.5193908203125  C 52.8894059570312 27.5193908203125  60.244619140625 34.8744041015625  60.244619140625 43.9459536132812  Z M 49.293344140625 43.9459536132812  C 49.293344140625 40.9223037109375  46.8419061523438 38.470466015625  43.8179564453125 38.470466015625  C 40.7942065429688 38.470466015625  38.3423688476562 40.9223037109375  38.3423688476562 43.9459536132812  C 38.3423688476562 46.9699034179687  40.7942065429688 49.421741015625  43.8179564453125 49.421741015625  C 46.84190625 49.421741015625  49.293344140625 46.9699033203125  49.293344140625 43.9459536132812  Z M 46.5558001953125 43.946153515625  C 46.5559000976563 45.4580284179688  45.3287321289063 46.6840971679687  43.8179564453125 46.6840971679687  C 42.3066810546875 46.6840971679687  41.0802125976563 45.4580284179688  41.0802125976563 43.946153515625  C 41.0802125976563 42.4342786132813  42.3066810546875 41.2084096679687  43.8179564453125 41.2084096679687  C 45.3286322265625 41.2084096679687  46.5558001953125 42.4343784179687  46.5558001953125 43.946153515625  Z M 87 38.470466015625  C 87.6224569335938 35.446816015625  85.1706193359375 32.9949784179688  82.1469693359375 32.9949784179688  L 74.794554296875 32.9949784179688  C 74.4068171875 31.8948243164062  73.9656163085938 30.8226512695313  73.467154296875 29.779958203125  L 78.6657296875001 24.58258203125  C 80.8019813476562 22.4449313476562  80.7994830078126 18.9759833007813  78.6632313476563 16.8370334960937  L 70.9178827148438 9.09548222656252  C 68.7815311523437 6.95813134765626  65.3139821289062 6.95813134765626  63.1777305664062 9.09548222656252  L 57.9774563476562 14.294357421875  C 56.937661328125 13.7968947265625  55.86538828125 13.3559936523437  54.7692315429688 12.9696555664062  L 54.7692315429688 5.61444238281251  C 54.7678325195313 2.59079238281248  52.314695703125 0.140253906249995  49.2908458984375 1  L 38.339870703125 1  C 35.3175198242188 0.140353808593773  32.8644830078125 2.59079238281248  32.8644830078125 5.61454228515623  L 32.8644830078125 12.9710545898437  C 31.7675267578125 13.358691796875  30.696153125 13.79709453125  29.6554586914062 14.2957564453125  L 24.4580825195313 9.09818037109375  C 22.3198322265625 6.96082949218749  18.8527829101562 6.96082949218749  16.7145326171875 9.09947949218753  L 8.97038310546878 16.84372890625  C 6.83223281250002 18.9812796875  6.83223281250002 22.4476294921875  8.97038310546878 24.5851801757813  L 14.1679591796875 29.7825563476563  C 13.6712958984375 30.8239502929687  13.2288958984375 31.8975223632813  12.8418583007813 32.9949783203125  L 5.48934326171877 32.9949783203125  C 2.46559335937502 32.9949783203125  0.0138556640625325 35.446816015625  0 38.4704659179687  L 0 49.4217409179687  C 0.0138556640625325 52.4453909179688  2.46559335937502 54.897228515625  5.48934326171877 54.897228515625  L 12.8418583007813 54.897228515625  C 13.2288958984375 55.9960834960938  13.669896875 57.0694557617188  14.1692583007813 58.1107497070312  L 8.97038310546878 63.30832578125  C 6.83353193359375 65.4471756835937  6.83623007812503 68.9162236328125  8.97298134765629 71.0538743164062  L 16.7185298828125 78.7965248046875  C 18.8554810546875 80.9327764648438  22.32243046875 80.9352747070312  24.4593815429687 78.7965248046875  L 29.6579569335938 73.5978495117188  C 30.6987512695313 74.0939131835938  31.7710243164063 74.5349141601563  32.8670811523438 74.9225513671875  L 32.8670811523438 82.2779643554687  C 32.8683802734375 85.3016143554688  35.3217168945313 87.7519530273437  38.3452668945313 87  L 49.2962420898438 87  C 52.3187927734375 87.7519529296875  54.7720294921875 85.3015143554687  54.7720294921875 82.2779642578125  L 54.7720295898437 74.9211524414063  C 55.8681864257812 74.533515234375  56.9402595703125 74.0938133789062  57.9802543945313 73.5964505859375  L 63.1779303710937 78.7938267578125  C 65.3166802734375 80.9326766601563  68.7845291015625 80.9300784179687  70.9220798828125 78.792427734375  L 78.6659295898437 71.048478125  C 80.8047794921874 68.9095283203125  80.8047794921874 65.4445775390625  78.6659295898437 63.305627734375  L 73.4685534179687 58.1080516601563  C 73.9657163085938 57.068256640625  74.4070171874999 55.994884375  74.794754296875 54.8972286132812  L 82.1471693359375 54.8972286132812  C 85.1709192382813 54.8972286132812  87.6226569335937 52.4453909179688  87 49.421741015625  L 87 38.470466015625  Z M 84.8847131835937 49.421741015625  C 84.8847131835937 50.9322168945312  83.6575452148437 52.1594848632813  82.1469693359375 52.1594848632813  C 82.1469693359375 52.1594848632813  75.1314258789063 52.1594848632813  73.9336379882812 52.1594848632813  C 72.73595 52.1594848632813  72.516398828125 53.0859567382813  72.364301953125 53.5416477539063  C 72.2106061523438 53.9989376953125  72.047416796875 54.4507313476562  71.872335546875 54.8972287109375  C 71.722537109375 55.282367578125  71.5648440429687 55.6618103515625  71.3990564453125 56.0387547851562  C 71.2173795898437 56.4584702148437  71.0247102539063 56.8703909179687  70.8216479492187 57.2767154296875  C 70.5971001953125 57.7313072265625  70.0970392578125 58.6069135742188  71.1973931640625 59.7069676757812  C 72.297547265625 60.8084208984375  76.730441796875 65.2414153320312  76.730441796875 65.2414153320312  C 77.7985176757812 66.3094912109375  77.799816796875 68.043315625  76.730441796875 69.1115913085937  L 68.98769140625 76.8557408203125  C 67.9182165039063 77.9252157226563  66.1831928710938 77.9252157226563  65.1135180664062 76.8570399414062  C 65.1135180664062 76.8570399414062  60.756871875 72.50039375  59.5496903320313 71.2919130859375  C 58.341109765625 70.0847315429687  57.7129356445313 70.6692352539062  57.3119075195312 70.8684001953125  C 56.8518194335937 71.0982443359375  56.3842365234375 71.3172958007813  55.9121565429688 71.5244553710937  C 55.536411328125 71.69024296875  55.1567686523438 71.8453377929687  54.7733287109375 71.9965352539062  C 54.3494161132812 72.1610237304687  53.9218060546875 72.3188166992188  53.488799609375 72.4646178710938  C 53.0086251953125 72.6289064453125  52.0315875976563 72.693162890625  52.0315875976563 74.0618349609375  C 52.0315875976563 75.4307068359375  52.0341858398438 82.2780643554688  52.0341858398438 82.2780643554688  C 52.0327868164063 83.788540234375  50.8096161132813 85.015808203125  49.2963420898437 85  L 38.3450670898437 85  C 36.832592578125 85.0145091796875  35.60592421875 83.788740234375  35.6046250976563 82.278064453125  C 35.6046250976563 82.278064453125  35.6046250976563 75.4095212890625  35.6046250976563 74.0618350585938  C 35.6046250976563 72.7144486328125  34.7932751953125 72.6797720703125  34.3912477539063 72.5485610351562  C 33.876896484375 72.3773770507813  33.3694405273437 72.195600390625  32.8667813476562 72.0004327148438  C 32.483741015625 71.8508341796875  32.1027993164063 71.6956393554688  31.727953515625 71.5298517578125  C 31.2859532226562 71.334783984375  30.847550390625 71.1316217773438  30.417741796875 70.9162677734375  C 29.986733984375 70.7024127929687  29.2007668945313 70.183764453125  28.0362564453125 71.3481749023438  C 26.8713462890625 72.5137845703125  22.5246932617188 76.8610372070312  22.5246932617188 76.8610372070312  C 21.4572169921875 77.9279138671875  19.7241919921875 77.930512109375  18.6541174804688 76.8610372070312  L 10.9098680664063 69.1182868164062  C 9.84109267578128 68.0461137695312  9.84109267578128 66.3138881835937  10.907169921875 65.2443133789063  C 10.907169921875 65.2443133789063  15.4256064453125 60.725776953125  16.4417174804688 59.7097658203125  C 17.4575288085937 58.6939544921875  17.10926484375 57.862418359375  16.9140971679687 57.47468125  C 16.6768580078125 57.0041002929688  16.4523102539063 56.5256247070313  16.2402540039063 56.0416528320313  C 16.07446640625 55.6647083984375  15.918971875 55.2822676757813  15.7664751953125 54.8974286132812  C 15.5913939453125 54.4507314453125  15.4289041015625 53.9991376953125  15.2751083007813 53.54184765625  C 15.122012109375 53.086056640625  14.9027607421875 52.1597846679688  13.7049728515625 52.1597846679688  C 12.5073848632812 52.1597846679688  5.49174140625001 52.1597846679688  5.49174140625001 52.1597846679688  C 3.98056601562502 52.1597846679688  2.75399755859377 50.9326166992187  3 49.4220408203125  L 3 38.470466015625  C 2.75399775390628 36.9585911132813  3.98056611328127 35.7327221679687  5.49174160156252 35.7327221679687  C 5.49174160156252 35.7327221679687  12.5073849609375 35.7327221679687  13.704973046875 35.7327221679687  C 14.9028608398438 35.7327221679687  15.1220123046875 34.8063502929688  15.2751084960938 34.34926015625  C 15.4289041992188 33.8919702148438  15.591294140625 33.4415755859375  15.766475390625 32.9949783203125  C 15.916273828125 32.6099393554688  16.0730674804688 32.22899765625  16.238955078125 31.8534522460938  C 16.422130859375 31.4349360351562  16.6139008789062 31.0232151367188  16.8166633789062 30.6154916015625  C 17.0412111328125 30.1610997070313  17.5425711914062 29.285393359375  16.441717578125 28.183940234375  C 15.3405641601562 27.0850852539062  10.9085690429687 22.6521907226563  10.9085690429687 22.6521907226563  C 9.84109277343748 21.5827158203125  9.83979365234376 19.8502904296875  10.9085690429687 18.7808155273437  L 18.6527185546875 11.036666015625  C 19.7214939453125 9.96719111328127  21.45591796875 9.96719111328127  22.524693359375 11.0353668945313  C 22.524693359375 11.0353668945313  26.8820390625 15.3933122070313  28.0892206054688 16.5991946289063  C 29.2968018554687 17.807475390625  29.9265749023438 17.2246705078125  30.32630390625 17.0242064453125  C 30.7862919921875 16.7943623046875  31.2540749023437 16.5751109375  31.7266544921875 16.3666522460937  C 32.1016002929687 16.2008646484375  32.4825419921875 16.0470689453125  32.8654823242188 15.8960712890625  C 33.28989453125 15.7302836914063  33.7170049804687 15.5751888671875  34.14951171875 15.4280885742187  C 34.6274876953125 15.2636000976563  35.6047250976562 15.1995435546875  35.6047250976562 13.8307715820313  C 35.6047250976562 12.4617997070313  35.602026953125 5.61464208984376  35.602026953125 5.61464208984376  C 35.6034259765625 4.10276718749998  36.8272961914063 2.87689824218751  38.3397708007813 3  L 49.2907459960937 3  C 50.8042198242188 2.87819736328123  52.0299887695313 4.10276708984372  52.0313877929688 5.61464208984376  C 52.0313877929688 5.61464208984376  52.0313877929688 12.484484375  52.0313877929688 13.8307715820313  C 52.0313877929688 15.1768588867187  52.8427376953125 15.2129344726562  53.24516484375 15.342646484375  C 53.758516796875 15.51373046875  54.2665723632812 15.6956071289063  54.7692315429688 15.8920739257812  C 55.1515723632813 16.0418723632812  55.5338131835937 16.1982663085938  55.908059375 16.3638541015625  C 56.3491603515625 16.5578225585937  56.787762890625 16.7623838867187  57.2179712890625 16.9762388671875  C 57.648679296875 17.1900938476563  58.434546484375 17.7088421875  59.6001561523437 16.5430326171875  C 60.7645666992187 15.3788219726562  65.1107200195312 11.0314694335938  65.1107200195312 11.0314694335938  C 66.1787958984375 9.96469267578124  67.9126203125 9.96199453125001  68.9819953125 11.0314694335938  L 76.7260448242188 18.772920703125  C 77.7942206054688 19.84509375  77.7942206054688 21.5788182617188  76.72874296875 22.646894140625  C 76.72874296875 22.646894140625  72.2103064453125 27.1667296875  71.1941954101562 28.181341796875  C 70.1783840820312 29.1972530273438  70.5272475585937 30.0300883789063  70.722415234375 30.4177254882812  C 70.9588548828125 30.8883064453125  71.1834026367188 31.3654829101562  71.39585859375 31.85075390625  C 71.5616461914063 32.22639921875  71.716741015625 32.6100390625  71.8691376953125 32.994978125  C 72.0443189453125 33.4415752929688  72.2061092773438 33.891969921875  72.3612041015625 34.3492599609375  C 72.5134008789063 34.8063500976563  72.7329520507813 35.7327219726562  73.9304401367187 35.7327219726562  C 75.1283279296875 35.7327219726562  82.1438713867187 35.7327219726562  82.1438713867187 35.7327219726562  C 83.654347265625 35.7327219726562  84.881615234375 36.9587907226563  84 38.4704658203125  L 84 49.4217408203125  L 84.8847131835937 49.421741015625  Z " fill-rule="nonzero" fill="#ffffff" stroke="none" transform="matrix(1 0 0 1 1040 377 )" />
  </g>
</svg>