<?xml version="1.0" encoding="utf-8"?>
<svg version="1.1" xmlns:xlink="http://www.w3.org/1999/xlink" width="88px" height="88px" xmlns="http://www.w3.org/2000/svg">
  <g transform="matrix(1 0 0 1 -301 -381 )">
    <path d="M 82.44534375 47.4007346854305  C 80.7247604166667 65.6807222682119  66.044 80.2642591059602  47.6419166666667 81.9734478476821  L 47.6419166666667 87.4520488410596  C 69.0820625 85.7103062913907  86.2068854166666 68.6988927980132  87.9602395833333 47.4007346854305  L 82.44534375 47.4007346854305  Z M 47.6419166666667 5.63715852649007  C 66.044 7.34634726821193  80.7247604166667 21.9298841059603  82.44534375 40.2100993377483  L 87.9602395833333 40.2100993377483  C 86.2068854166666 18.9119412251656  69.0820625 1.90030008278146  47.6419166666667 0.158785182119205  L 47.6419166666667 5.63715852649007  Z M 40.40334375 0.158785182119205  C 18.9631979166667 1.90030008278146  1.83837500000003 18.9119412251656  0.0850208333333467 40.2100993377483  L 5.59991666666668 40.2100993377483  C 7.32049999999999 21.9298841059603  22.0012604166666 7.34634726821193  40.40334375 5.63715852649007  L 40.40334375 0.158785182119205  Z M 40.40334375 81.9734478476822  C 22.0012604166667 80.2642591059603  7.32049999999999 65.680722268212  5.59991666666668 47.4007346854305  L 0.0850208333333467 47.4007346854305  C 1.83837500000003 68.6988927980132  18.9631979166667 85.7103062913908  40.40334375 87.4520488410596  L 40.40334375 81.9734478476822  Z M 47.64203125 19.4442984271523  C 58.42753125 21.0208816225165  66.9590625 29.4959126655629  68.5462708333334 40.2100993377483  L 74.1191458333333 40.2100993377483  C 72.4637604166666 26.4680670529801  61.4756770833333 15.5526386589404  47.64203125 13.908329884106  L 47.64203125 19.4442984271523  Z M 40.4034583333333 13.9082160596026  C 26.5696979166666 15.5526386589404  15.5815 26.4680670529801  13.9262291666667 40.2100993377483  L 19.4991041666667 40.2100993377483  C 21.0863125 29.4959126655629  29.61784375 21.0208816225165  40.4034583333333 19.444184602649  L 40.4034583333333 13.9082160596026  Z M 47.6418020833333 73.7025041390728  C 61.4755625 72.0581953642384  72.4637604166666 61.1427669701987  74.11903125 47.4007346854305  L 68.54615625 47.4007346854305  C 66.9589479166667 58.1149213576159  58.4274166666667 66.5899524006622  47.6418020833333 68.1664217715232  L 47.6418020833333 73.7025041390728  Z M 40.4032291666667 68.1664217715232  C 29.6177291666667 66.5899524006622  21.0863125 58.1149213576159  19.4989895833333 47.4007346854305  L 13.9261145833333 47.4007346854305  C 15.5815 61.1427669701987  26.5695833333333 72.0581953642384  40.4032291666667 73.7025041390728  L 40.4032291666667 68.1664217715232  Z M 40.40334375 27.7780732615894  C 34.18353125 29.1637727649006  29.2834895833333 34.0314776490066  27.8884375 40.2100993377483  L 33.6522083333333 40.2100993377483  C 34.7590294436263 37.0712057731882  37.2435242283428 34.6031645963176  40.40334375 33.5036734271523  L 40.40334375 27.7780732615894  Z M 47.6419166666667 33.5036734271523  C 50.8017727962783 34.6031067411496  53.2862892139095 37.0711694076706  54.3930520833333 40.2100993377483  L 60.1568229166667 40.2100993377483  C 58.7617708333333 34.0314776490066  53.8617291666666 29.1637727649006  47.6419166666667 27.7780732615894  L 47.6419166666667 33.5036734271523  Z M 47.6419166666667 59.8327607615894  C 53.8617291666666 58.4468336092715  58.7618854166666 53.5793563741722  60.1568229166667 47.4007346854305  L 54.3930520833333 47.4007346854305  C 53.2861581806385 50.5395827973796  50.8016904326954 53.0075971165283  47.6419166666667 54.1071605960265  L 47.6419166666667 59.8327607615894  Z M 40.40334375 54.1071605960265  C 37.2435974350474 53.007553734929  34.7591459068381 50.5395555280986  33.6522083333333 47.4007346854305  L 27.8884375 47.4007346854305  C 29.2834895833333 53.5793563741722  34.18353125 58.4468336092715  40.40334375 59.8327607615894  L 40.40334375 54.1071605960265  Z " fill-rule="nonzero" fill="#ffffff" stroke="none" transform="matrix(1 0 0 1 301 381 )" />
  </g>
</svg>