<?xml version="1.0" encoding="utf-8"?>
<svg version="1.1" xmlns:xlink="http://www.w3.org/1999/xlink" width="88px" height="88px" xmlns="http://www.w3.org/2000/svg">
  <g transform="matrix(1 0 0 1 -1287 -377 )">
    <path d="M 29.3345703125 73.33076171875  L 24.44609375 83.10771484375  C 10.12998046875 75.896484375  0.25 61.04599609375  0.25 44  C 0.25 19.9375  19.9375 0.25  44 0.25  C 68.0625 0.25  87.75 19.9375  87.75 44  C 87.75 61.04599609375  77.8701171875 75.896484375  63.55390625 83.10771484375  L 58.6654296875 73.33076171875  C 69.4025390625 67.92236328125  76.8125 56.78447265625  76.8125 44  C 76.8125 25.953125  62.046875 11.1875  44 11.1875  C 25.953125 11.1875  11.1875 25.953125  11.1875 44  C 11.1875 56.78447265625  18.5974609375 67.92236328125  29.3345703125 73.33076171875  Z M 35.8525390625 60.294921875  L 32.5935546875 66.81279296875  C 24.24248046875 62.60625  18.47919921875 53.94345703125  18.47919921875 44  C 18.47919921875 29.96357421875  29.96357421875 18.47919921875  44 18.47919921875  C 58.03642578125 18.47919921875  69.52080078125 29.96357421875  69.52080078125 44  C 69.52080078125 53.94345703125  63.75751953125 62.60625  55.4064453125 66.81279296875  L 52.1474609375 60.294921875  C 58.1125 57.290234375  62.22919921875 51.1025390625  62.22919921875 44  C 62.22919921875 33.97392578125  54.02607421875 25.77080078125  44 25.77080078125  C 33.97392578125 25.77080078125  25.77080078125 33.97392578125  25.77080078125 44  C 25.77080078125 51.1025390625  29.8875 57.290234375  35.8525390625 60.294921875  Z M 54.9375 44  C 54.9375 37.984375  50.015625 33.0625  44 33.0625  C 37.984375 33.0625  33.0625 37.984375  33.0625 44  C 33.0625 50.015625  37.984375 54.9375  44 54.9375  C 50.015625 54.9375  54.9375 50.015625  54.9375 44  Z M 44 87  L 44 58.58330078125  L 58.6484375 87  L 44 87  Z M 44 87  L 44 58.58330078125  L 29.41669921875 87  L 44 87  Z " fill-rule="nonzero" fill="#ffffff" stroke="none" transform="matrix(1 0 0 1 1287 377 )" />
  </g>
</svg>