<?xml version="1.0" encoding="utf-8"?>
<svg version="1.1" xmlns:xlink="http://www.w3.org/1999/xlink" width="88px" height="88px" xmlns="http://www.w3.org/2000/svg">
  <g transform="matrix(1 0 0 1 -795 -381 )">
    <path d="M 37.0084894099906 40.1806360853892  L 37.0846153817154 40.1806360853892  L 4.08402119509896 23.1504004508487  C 3.6821490903551 22.9299172353347  3.23388458205376 22.8146054707769  2.77864726201204 22.8146054707769  C 1.24407064259898 22.8146054707769  5.04966962990148E-05 24.0971004665529  5.04966962990148E-05 25.6791382185251  C 5.04966962990148E-05 25.7650400004925  0.00379861626489106 25.8508983073427  0 25.9364528153755  L 0 63.6462603223957  C 0.0214505439109213 64.628665758167  0.525928120679601 65.5350908777854  1.34348737417531 66.0399109418269  L 34.2679556720075 87.2688452403393  C 34.6992505341479 87.5592018343275  35.1995220376294 87.722068318742  35.7143484712535 87.7397273686563  C 37.2279034611383 87.7397273686563  38.4548822092366 86.4748008242251  38.4548822092366 84.9144348552717  C 38.4548822092366 84.9144348552717  38.4548822092366 84.9144347697659  39 84.9144347697659  L 39 42.7312474712632  C 38.4767253281149 41.6681886803814  37.9177698355112 40.6825102088245  37.0084894099906 40.1806360853892  Z M 33 44.5755356646618  L 33 79.8524523178872  L 6 62.0374131931556  L 6 30.6452737565223  L 33 44.5755356646618  Z M 86.7187269670122 22.7579987057532  L 86.756789994345 22.7579987057532  C 85.938350275554 22.2973778094014  84.9488848083291 22.2973778094014  84.1304450895382 22.7579987057532  L 45.6868463713478 40.1806360853892  C 44.6909629221968 40.6324281938431  44.0486497287165 41.6487952721169  44 42.7704876201211  L 44 84.9536750041295  C 44.0575404442122 86.5086104907986  45.2823338397376 87.7651028622312  46.7906394233718 87.7651028622312  C 47.2717165095204 87.7651028622312  47.7443177035767 87.6345496312037  48.160939332705 87.3865657724185  L 86.5664751065033 64.7057450256032  C 87.4102463510347 64.2035431653881  87.9319472223779 63.2772701714123  88 62.2728542573142  L 88 25.1516494106902  C 87.9513171591528 24.1923124847604  87.4926369735561 23.2909113488412  86.7187269670122 22.7579987057532  Z M 82 29.4680685212356  L 82 60.4678062127734  L 49 79.8524523178872  L 49 44.5362954302982  L 82 29.4680685212356  Z M 80.400274133836 18.6770205738605  C 81.6899632705632 18.2317126944766  82.4677223575872 16.8786524134525  82.2272966258247 15.4985664642382  C 82.1761690715429 14.3328768742089  81.4351696433885 13.3195176585128  80.3622111894439 12.9479551638699  L 45.6868463713478 0.351859257459896  C 45.1543926146068 0.1774477393854  44.5825924410011 0.177447739385403  44.0501386842601 0.351859257459896  L 6.93874384919887 13.732758654061  C 5.81772145197774 14.1161104571444  5.06103528853778 15.1967571444937  5.06103528853778 16.4143717638624  C 5.06103528853778 17.4928936615274  5.65663938776984 18.4773265783897  6.59617718378888 18.9517018723826  L 39.5967712874646 35.9819375069231  C 39.9769122038579 36.168759604958  40.3937026428696 36.2627522886821  40.8147863374175 36.2566187199394  C 41.1791271156451 36.3316727315868  41.5542716100854 36.3316727315868  41.9186123883129 36.2566187199394  L 80.400274133836 18.6770205738605  Z M 71.9502950047125 15.7732476772545  L 41.0051011423186 30.1351514793474  L 14.9700303411876 16.9112127636834  L 44.7352720980207 6.1594050506719  L 71.9502950047125 15.7732476772545  Z " fill-rule="nonzero" fill="#ffffff" stroke="none" transform="matrix(1 0 0 1 795 381 )" />
  </g>
</svg>