<?xml version="1.0" encoding="utf-8"?>
<svg version="1.1" xmlns:xlink="http://www.w3.org/1999/xlink" width="88px" height="88px" xmlns="http://www.w3.org/2000/svg">
  <g transform="matrix(1 0 0 1 -550 -381 )">
    <path d="M 87.467399691358 22.7109375  C 88.4646990740741 20.42578125  86.6822916666667 18.35546875  85.6849922839506 17.427734375  L 72.2426697530864 1.880859375  C 72.1365740740741 1.75390625  72.0092592592593 1.63671875  71.8819444444444 1.51953125  C 70.8952546296296 0.699218749999999  70.1525848765432 0.289062500000001  68.6566358024692 0.259765624999999  C 67.2137345679012 0.152343749999999  65.7602237654321 0.572265625  64.6356095679013 1.421875  C 64.4976851851852 1.529296875  64.3703703703704 1.646484375  64.2536651234568 1.763671875  L 48.837962962963 17.974609375  C 48.7636959876543 18.052734375  48.7000385802469 18.130859375  48.6363811728395 18.208984375  L 48.4878472222222 18.39453125  C 47.9891975308642 19.009765625  46.4826388888889 20.875  47.936149691358 23.248046875  C 48.8591820987655 24.76171875  50.4081790123457 25.484375  52.6574074074074 25.3671875  L 56.7951388888889 25.3671875  C 55.9251543209877 31.607421875  51.8404706790124 37.076171875  45.6338734567901 40.0546875  C 42.1221064814815 41.744140625  38.4936342592593 43.482421875  39.4484953703704 46.548828125  C 40.0850694444444 48.58984375  41.8568672839506 49.087890625  44.3925540123457 49.087890625  C 45.4853395061728 49.087890625  46.7266589506173 49  48.0740740740741 48.892578125  L 48.795524691358 48.833984375  C 63.2351466049383 47.80859375  75.0542052469136 38.052734375  77.9187885802469 25.220703125  L 82.6082175925926 25.220703125  C 85.8865740740741 25.220703125  87.0536265432099 23.6484375  87.467399691358 22.7109375  Z M 78.7675540123457 19.166015625  L 75.1072530864197 19.166015625  C 73.4309413580247 19.166015625  72.0198688271605 20.328125  71.8288966049383 21.861328125  C 70.7148919753086 31.080078125  63.8611111111111 38.658203125  54.673225308642 41.578125  C 60.4554398148148 36.6953125  63.7444058641975 29.7421875  63.5534336419753 22.26171875  C 63.5109953703704 20.611328125  62.046875 19.302734375  60.2538580246914 19.302734375  L 56.3283179012346 19.302734375  L 68.1473765432099 6.890625  L 78.7675540123457 19.166015625  Z M 75 47.193359375  C 75.8605324074074 45.42578125  74.3009259259259 43.990234375  72.3805941358025 43.990234375  C 70.460262345679 43.990234375  68.9006558641975 45.42578125  69 47.193359375  L 69 81.177734375  C 68.9006558641975 81.28515625  68.8582175925926 81.333984375  68.8688271604938 81  L 7.28028549382716 81  C 7.28028549382716 81.36328125  7.20601851851852 81.314453125  8 81.177734375  L 8 13.1015625  C 7.20601851851852 12.994140625  7.24845679012346 12.9453125  7.23784722222222 13  L 44.1060956790123 13  C 46.0264274691358 12.935546875  47.5860339506173 11.5  47.5860339506173 9.732421875  C 47.5860339506173 7.96484375  46.0264274691358 6.529296875  44.1060956790123 7  L 7.20601851851852 7  C 3.3653549382716 6.529296875  0.235532407407405 9.478515625  1 13.1015625  L 1 81.177734375  C 0.235532407407405 84.80078125  3.3653549382716 87.75  7.20601851851852 87  L 68.8900462962963 87  C 72.7307098765432 87.75  75.8605324074074 84.80078125  75 81.177734375  L 75 47.193359375  Z M 12.8715277777778 67.5546875  C 13.3595679012346 68.90234375  14.7175925925926 69.751953125  16.1711033950617 69.751953125  C 16.2771990740741 69.751953125  16.3939043209877 69.7421875  16.5 69.732421875  C 18.5582561728395 69.673828125  41.9099151234568 69.703125  57.3043981481481 69.751953125  L 57.3150077160494 69.751953125  C 59.2353395061728 69.751953125  60.7949459876543 68.326171875  60.7949459876543 66.55859375  C 60.8055555555556 64.791015625  59.2459490740741 63.35546875  57.3256172839506 63.345703125  C 15.9695216049383 63.23828125  15.7997685185185 63.287109375  15.0783179012346 63.51171875  C 13.2534722222222 64.068359375  12.2667824074074 65.875  12.8715277777778 67.5546875  Z M 40.2229938271605 27.798828125  C 40.244212962963 26.03125  38.6952160493827 24.5859375  36.764274691358 24.576171875  C 15.9801311728395 24.458984375  15.7891589506173 24.517578125  15.0783179012346 24.7421875  C 13.2534722222222 25.298828125  12.2667824074074 27.10546875  12.8715277777778 28.78515625  C 13.3595679012346 30.1328125  14.7175925925926 30.982421875  16.1711033950617 30.982421875  C 16.2984182098765 30.982421875  16.4363425925926 30.97265625  16.5636574074074 30.962890625  C 18.0702160493827 30.904296875  29.6346450617284 30.943359375  36.7218364197531 30.982421875  L 36.7430555555556 30.982421875  C 38.6527777777778 30.982421875  40.2123842592593 29.556640625  40.2229938271605 27.798828125  Z M 12.8715277777778 48.16015625  C 13.3595679012346 49.517578125  14.7175925925926 50.3671875  16.1711033950617 50.3671875  C 16.319637345679 50.3671875  16.4575617283951 50.357421875  16.6060956790123 50.337890625  C 17.8049768518518 50.2890625  25.1467978395062 50.318359375  30.1226851851852 50.357421875  L 30.1545138888889 50.357421875  C 32.0642361111111 50.357421875  33.6132330246914 48.94140625  33.6344521604938 47.18359375  C 33.6556712962963 45.416015625  32.1066743827161 43.970703125  30.1863425925926 43.951171875  C 15.9907407407407 43.833984375  15.7573302469136 43.90234375  15.0783179012346 44.1171875  C 13.2534722222222 44.673828125  12.2667824074074 46.48046875  12.8715277777778 48.16015625  Z " fill-rule="nonzero" fill="#ffffff" stroke="none" transform="matrix(1 0 0 1 550 381 )" />
  </g>
</svg>