<?xml version="1.0" encoding="utf-8"?>
<svg version="1.1" xmlns:xlink="http://www.w3.org/1999/xlink" width="88px" height="88px" xmlns="http://www.w3.org/2000/svg">
  <g transform="matrix(1 0 0 1 -1535 -377 )">
    <path d="M 25.9398692810458 12.54  C 25.9398692810458 19.36  20.1307189542484 24.86  13.0562091503268 24.86  C 5.98169934640522 24.86  0.172549019607817 19.36  0.172549019607817 12.54  C 0.172549019607817 5.71999999999999  5.92418300653592 0.219999999999987  13.0562091503268 0.219999999999987  C 20.1307189542484 0.219999999999987  25.9398692810458 5.71999999999999  25.9398692810458 12.54  Z M 19.6705882352941 12.54  C 19.6705882352941 9.075  16.6797385620915 6.21499999999997  13.0562091503268 6.21499999999997  C 9.37516339869278 6.21499999999997  6.4418300653595 9.075  6.4418300653595 12.54  C 6.4418300653595 16.005  9.43267973856208 18.865  13.0562091503268 18.865  C 16.7372549019608 18.865  19.6705882352941 16.005  19.6705882352941 12.54  Z M 87.5398692810458 12.375  C 87.5398692810458 19.195  81.7882352941177 24.695  74.6562091503268 24.695  C 67.5816993464052 24.695  61.7725490196078 19.195  61.7725490196078 12.375  C 61.7725490196078 5.55500000000001  67.5241830065359 0.0550000000000125  74.6562091503268 0.0550000000000125  C 81.7307189542483 0.0550000000000125  87.5398692810458 5.55500000000001  87.5398692810458 12.375  Z M 81.2705882352941 12.375  C 81.2705882352941 8.91000000000003  78.3372549019608 6.05  74.6562091503268 6.05  C 70.9751633986928 6.05  68.0418300653594 8.91000000000003  68.0418300653594 12.375  C 68.0418300653594 15.84  71.0326797385621 18.7  74.6562091503268 18.7  C 78.3372549019608 18.7  81.2705882352941 15.84  81.2705882352941 12.375  Z M 56.7686274509804 25.355  C 56.7686274509804 32.175  50.959477124183 37.675  43.8849673202614 37.675  C 36.8104575163399 37.675  31.0013071895425 32.175  31.0013071895425 25.355  C 31.0013071895425 18.535  36.7529411764706 13.035  43.8849673202614 13.035  C 50.959477124183 13.035  56.7686274509804 18.535  56.7686274509804 25.355  Z M 50.4993464052287 25.3  C 50.4993464052287 21.835  47.5084967320262 18.975  43.8849673202614 18.975  C 40.2039215686274 18.975  37.2705882352941 21.835  37.2705882352941 25.3  C 37.2705882352941 28.765  40.2614379084967 31.625  43.8849673202614 31.625  C 47.5660130718955 31.625  50.4993464052287 28.765  50.4993464052287 25.3  Z M 7 85.03  C 6.61437908496732 86.68  5.17647058823529 88  3.45098039215686 88  C 1.72549019607843 88  0.345098039215699 86.68  1 85.03  L 1 36.025  C 0.345098039215699 33.99  1.55294117647061 32.23  3.45098039215686 31.405  C 5.29150326797388 30.635  7.30457516339872 31.02  8.74248366013074 32.34  L 36.4653594771242 57.475  C 38.7660130718954 59.565  40.0888888888889 62.535  40 65.67  L 40 84.645  C 40.0888888888889 86.295  38.7084967320261 87.615  36.9830065359477 87.615  C 35.2575163398693 87.615  33.8771241830065 86.295  34 84.645  L 34 65.67  C 33.8771241830065 64.185  33.3019607843137 62.755  32.2091503267974 61.82  L 7 38.61  L 7 85.03  Z M 87 85.03  C 87.2522875816994 86.68  85.8718954248366 88  84.1464052287581 88  C 82.4209150326797 88  81.040522875817 86.68  81 85.03  L 81 38.61  L 55.4457516339869 61.82  C 54.4104575163399 62.755  53.7777777777778 64.185  53 65.67  L 53 84.645  C 53.7777777777778 86.295  52.397385620915 87.615  50.6718954248366 87.615  C 48.9464052287582 87.615  47.5660130718955 86.295  47 84.645  L 47 65.67  C 47.5660130718955 62.535  48.8888888888889 59.565  51.1895424836601 57.475  L 78.9124183006536 32.34  C 80.3503267973856 31.02  82.4209150326797 30.69  84.2039215686275 31.405  C 86.1019607843137 32.175  87.3098039215686 33.99  87 36.025  L 87 85.03  Z " fill-rule="nonzero" fill="#ffffff" stroke="none" transform="matrix(1 0 0 1 1535 377 )" />
  </g>
</svg>