<?xml version="1.0" encoding="utf-8"?>
<svg version="1.1" xmlns:xlink="http://www.w3.org/1999/xlink" width="40px" height="40px" xmlns="http://www.w3.org/2000/svg">
  <g transform="matrix(1 0 0 1 -684 -667 )">
    <path d="M 24.9443037974683 38.6795180722892  C 24.9443037974683 39.344578313253  24.3772151898734 39.8843373493976  23.6784810126582 39.8843373493976  L 3.72405063291139 39.8843373493976  C 1.73164556962025 39.8843373493976  0.108860759493673 38.3638554216868  0.108860759493673 36.4963855421687  L 0.108860759493673 3.48674698795181  C 0.108860759493673 1.61927710843373  1.72911392405063 0.0987951807228907  3.72405063291139 0  L 32.2481012658228 0  C 34.2405063291139 0.0987951807228907  35.8632911392405 1.61927710843373  35.8632911392405 3.48674698795181  L 35.8632911392405 17.0120481927711  C 35.8632911392405 17.6771084337349  35.2962025316456 18.2168674698795  34.5974683544304 18.2168674698795  C 33.8987341772152 18.2168674698795  33.3316455696202 17.6771084337349  33 17.0120481927711  L 33 3.48674698795181  C 33.3316455696202 2.94698795180723  32.8455696202532 2.50843373493976  32.2481012658228 3  L 3.72405063291139 3  C 3.12658227848102 2.50843373493976  2.64050632911393 2.94698795180723  3 3.48674698795181  L 3 36.4963855421687  C 2.64050632911393 37.0361445783132  3.12658227848102 37.4746987951807  3.72405063291139 37  L 23.6784810126582 37  C 24.3772151898734 37.4746987951807  24.9443037974683 38.0144578313253  24.9443037974683 38.6795180722892  Z M 27.5569620253165 9.76144578313253  C 27.5569620253165 10.4265060240964  26.9898734177215 10.966265060241  26.2911392405063 10.966265060241  L 16.5620253164557 10.966265060241  C 15.8632911392405 10.966265060241  15.2962025316456 10.4265060240964  15.2962025316456 9.76144578313253  C 15.2962025316456 9.09638554216867  15.8632911392405 8.5566265060241  16.5620253164557 8.5566265060241  L 26.2911392405063 8.5566265060241  C 26.9898734177215 8.5566265060241  27.5569620253165 9.09638554216867  27.5569620253165 9.76144578313253  Z M 10.0405063291139 12.1469879518072  C 10.0025316455696 12.1493975903615  9.96455696202532 12.1518072289157  9.92658227848101 12.1518072289157  C 9.61012658227848 12.1518072289157  9.30379746835443 12.0385542168675  9.06835443037975 11.833734939759  L 6.62278481012657 9.68915662650603  C 6.10873826123563 9.23779857884011  6.0758848569042 8.47545491780007  6.5493670886076 7.9855421686747  C 7.02364206350592 7.49639929921988  7.82447012224004 7.46513369225068  8.33924050632911 7.91566265060242  L 9.75696202531645 9.15903614457831  L 11.9341772151899 6.41204819277109  C 12.3544303797468 5.88192771084337  13.1493670886076 5.77590361445783  13.706329113924 6.17590361445783  C 14.2632911392405 6.57590361445784  14.3746835443038 7.33253012048193  13.9544303797468 7.86265060240964  L 10.9367088607595 11.6722891566265  C 10.7215512459276 11.9436005413736  10.396150430197 12.1159582057672  10.0405063291139 12.1469879518072  Z M 21.7139240506329 19.855421686747  C 21.7139240506329 20.5204819277109  21.146835443038 21.0602409638554  20.4481012658228 21.0602409638554  L 16.5620253164557 21.0602409638554  C 15.8632911392405 21.0602409638554  15.2962025316456 20.5204819277109  15.2962025316456 19.855421686747  C 15.2962025316456 19.1903614457831  15.8632911392405 18.6506024096386  16.5620253164557 18.6506024096386  L 20.4481012658228 18.6506024096386  C 21.146835443038 18.6506024096386  21.7139240506329 19.1903614457831  21.7139240506329 19.855421686747  Z M 10.0379746835443 22.2385542168675  C 10.0025316455696 22.2433734939759  9.96455696202532 22.2457831325301  9.92658227848101 22.2457831325301  C 9.61012658227848 22.2457831325301  9.30379746835443 22.1325301204819  9.06835443037975 21.9277108433735  L 6.62278481012657 19.7831325301205  C 6.10873826123563 19.3317744824546  6.0758848569042 18.5694308214145  6.5493670886076 18.0795180722891  C 7.02364206350592 17.5903752028343  7.82447012224004 17.5591095958651  8.33924050632911 18.0096385542169  L 9.75696202531645 19.2530120481928  L 11.9341772151899 16.5060240963855  C 12.3544303797468 15.9759036144578  13.1493670886076 15.8698795180723  13.706329113924 16.2698795180723  C 14.2632911392405 16.6698795180723  14.3746835443038 17.4265060240964  13.9544303797468 17.9566265060241  L 10.9341772151899 21.7638554216867  C 10.7190196003579 22.0351668064338  10.3936187846274 22.2075244708275  10.0379746835443 22.2385542168675  Z M 20.6835443037975 30.5903614457831  C 20.6835443037975 31.255421686747  20.1164556962025 31.7951807228916  19.4177215189873 31.7951807228916  L 16.5620253164557 31.7951807228916  C 15.8632911392405 31.7951807228916  15.2962025316456 31.255421686747  15.2962025316456 30.5903614457831  C 15.2962025316456 29.9253012048193  15.8632911392405 29.3855421686747  16.5620253164557 29.3855421686747  L 19.4177215189873 29.3855421686747  C 20.1164556962025 29.3855421686747  20.6835443037975 29.9253012048193  20.6835443037975 30.5903614457831  Z M 10.0379746835443 32.9759036144578  C 10.0025316455696 32.9807228915663  9.96455696202532 32.9831325301205  9.92658227848101 32.9831325301205  C 9.61012658227848 32.9831325301205  9.30379746835443 32.8698795180723  9.06835443037975 32.6650602409638  L 6.62278481012657 30.5204819277108  C 6.10873826123563 30.0691238800449  6.0758848569042 29.3067802190049  6.5493670886076 28.8168674698795  C 7.02364206350592 28.3277246004247  7.82447012224004 28.2964589934555  8.33924050632911 28.7469879518072  L 9.75696202531645 29.9903614457831  L 11.9341772151899 27.2433734939759  C 12.3544303797468 26.7132530120482  13.1493670886076 26.6072289156627  13.706329113924 27.0072289156626  C 14.2632911392405 27.4072289156626  14.3746835443038 28.1638554216867  13.9544303797468 28.6939759036145  L 10.9341772151899 32.5012048192771  C 10.7190196003579 32.7725162040242  10.3936187846274 32.9448738684179  10.0379746835443 32.9759036144578  Z M 32.0227848101266 18.9831325301205  C 31.5873417721519 18.6578313253012  31.0025316455696 18.6506024096386  30.5569620253165 18.9614457831325  C 29.3873417721519 19.7734939759036  26.9544303797468 21.1975903614458  23.9974683544304 21.4385542168675  C 23.3215189873418 21.4939759036145  22.8 22.0843373493976  22.8 22.7927710843373  L 22.8 31.2626506024096  C 22.8 31.2626506024096  22.3949367088608 34.3349397590361  27.053164556962 37.1397590361446  C 28.7189873417722 38.1638554216867  30.0075949367089 38.8602409638554  30.7088607594937 39.2216867469879  C 31.0784810126582 39.4144578313253  31.5139240506329 39.4072289156626  31.8810126582279 39.2096385542169  C 32.7822784810127 38.7204819277108  34.4962025316456 37.7855421686747  35.1518987341772 37.4048192771084  C 36.0632911392405 36.8746987951807  39.9620253164557 34.4385542168675  39.9620253164557 31.2096385542169  L 39.9620253164557 22.8433734939759  C 39.9620253164557 22.1469879518072  39.4607594936709 21.566265060241  38.7974683544304 21.4915662650602  C 37.2405063291139 21.3156626506024  34.4 20.7542168674699  32.0227848101266 18.9831325301205  Z M 31.6101265822785 32.3734939759036  C 31.5746835443038 32.3783132530121  31.5367088607595 32.3807228915663  31.4987341772152 32.3807228915663  C 31.1822784810126 32.3807228915663  30.8759493670886 32.2674698795181  30.6405063291139 32.0626506024096  L 27.8025316455696 29.5734939759036  C 27.2884850966787 29.1221359282377  27.2556316923472 28.3597922671977  27.7291139240506 27.8698795180723  C 28.203388898949 27.3807366486175  29.0042169576831 27.3494710416483  29.5189873417722 27.8  L 31.3291139240506 29.3879518072289  L 34.5974683544304 25.2674698795181  C 35.0177215189873 24.7373493975904  35.8126582278481 24.6313253012048  36.3696202531645 25.0313253012048  C 36.926582278481 25.4313253012048  37.0379746835443 26.1879518072289  36.6177215189873 26.7180722891566  L 32.506329113924 31.8987951807229  C 32.2911714990921 32.17010656547  31.9657706833616 32.3424642298636  31.6101265822785 32.3734939759036  Z " fill-rule="nonzero" fill="#566684" stroke="none" transform="matrix(1 0 0 1 684 667 )" />
  </g>
</svg>