<?xml version="1.0" encoding="utf-8"?>
<svg version="1.1" xmlns:xlink="http://www.w3.org/1999/xlink" width="40px" height="40px" xmlns="http://www.w3.org/2000/svg">
  <g transform="matrix(1 0 0 1 -687 -226 )">
    <path d="M 36.9416035978836 30.4831371428571  C 36.9416036402116 31.3304118476191  36.0001872592593 31.9035682666666  35.3688845291006 32  L 22.7539057354497 32  C 21.8014139259259 31.9035682285714  21.1811867089947 31.3304118095238  21.1811866666667 30.4831371428571  C 21.1811866666667 29.6258945142857  21.8124893968254 29.0627060190476  22.7539057354497 29  L 35.3688845291006 29  C 36.3213763386243 29.0627060190476  36.9416035555555 29.6358624380952  36.9416035978836 30.4831371428571  Z M 39.3420426571429 31.6097251477411  C 39.0336595857143 31.9010956190476  38.7140626 31.9010956190476  38.3944655714286 31.9010956190476  C 38.0748685857143 31.9010956190476  37.4300676142857 31.9010956190476  37.1104706285714 31.6097251477411  L 31.6773216142857 26.6462033894994  C 31.0381276000001 26.0583506520147  31.0381276000001 25.1893509548229  31.6773216142857 24.60661001221  C 32.3165156285714 24.0187572747253  33.2696996285714 24.0187572747253  33.9088936857142 24.60661001221  L 39.3420426571429 29.5701317704518  C 39.9812366714285 30.1579845079365  39.9812366714285 31.0269842051282  39.3420426571429 31.6097251477411  Z M 34.2093956596409 36.9272739242979  C 34.2257365599792 37.2186443956044  33.915259786625 37.2186443956044  33.2888593702836 37.2186443956044  C 32.9783826385636 37.2186443956044  32.351982180588 37.2186443956044  32.0415054072339 36.9272739242979  C 31.4205519021598 36.3394211868132  31.4205519021598 35.4704214896215  32.0415054072339 34.8876805079365  L 37.3196100962789 29.9241587887668  C 37.9405636013531 29.3363060512821  38.8665468436118 29.3363060512821  39.4875003486859 29.9241587887668  C 40.1084538537601 30.5120115262515  40.1084538537601 31.3810112234432  39.4875003486859 31.9637521660562  L 34.2093956596409 36.9272739242979  Z M 23.3590504918033 38.3841263199023  C 23.3644974447046 39.2633495286935  22.4276202550091 39.8460905103785  21.8175606557377 39.8460905103785  L 3.1944029143898 39.8460905103785  C 1.33698939370288 39.8460905103785  0.0896354722872275 38.6754968302808  0 36.9272739242979  L 0 3.07718017094018  C 0.0896354722872275 1.32895726495727  1.33698939370288 0.158363584859586  3.1944029143898 0.158363545787552  L 34.8357961176164 0.158363545787552  C 36.6932096383034 0.158363545787552  37.940563559719 1.32895722588523  38 3.07718017094018  L 38 17.3747809133089  C 37.940563559719 18.2540041221001  37.3196100546448 18.8316333479854  36.3936268123862 18.8316333479854  C 35.4567496226906 18.8316333479854  34.8466900650534 18.2437806105006  34.8466900234192 17.3747809133089  L 34.8466900234192 3  L 3.1944029143898 3  L 3.1944029143898 37  L 21.5016369711163 37  C 22.4385141608119 36.9272739242979  23.3590504918033 37.5151266617827  23.3590504918033 38.3841263199023  Z M 27.821685534632 10.4609091293891  C 27.821685534632 11.3268107744108  27.2029371277056 11.895688042328  26.293646025974 12  L 10.658142995671 12  C 9.73271061255411 11.895688042328  9.130103487013 11.3167421645022  9.13010344588747 10.4609091293891  C 9.13010344588747 9.59500748436747  9.74347143939394 9.02613021645021  10.658142995671 9  L 26.293646025974 9  C 27.2190784090909 9.02613025493025  27.821685534632 9.60507613275612  27.821685534632 10.4609091293891  Z M 23.2268061406926 18.802763982684  C 23.2268061818182 19.658596979317  22.3013737575758 20.2375428956229  21.6987665909091 20  L 10.658142995671 20  C 9.73271061255411 20.2375428956229  9.130103487013 19.658597017797  9.13010344588747 18.802763982684  C 9.13010344588747 17.9368623376623  9.74347143939394 17.3679850697451  10.658142995671 18  L 21.6987665909091 18  C 22.3121345844156 17.3679851082251  23.2268060995671 17.946930986051  23.2268061406926 18.802763982684  Z M 19.8479018246753 27.4164716883117  C 19.8479018246753 28.2773390283791  18.9386106818182 28.8512506012506  18.3198623160173 28.8512506012506  L 10.658142995671 28.8512506012506  C 9.73271061255411 28.8512506012506  9.130103487013 28.2723047234247  9.13010344588747 27.4164716883117  C 9.13010344588747 26.5505700432901  9.74347143939394 25.9816927753728  10.658142995671 25.9816927753728  L 18.3198623160173 25.9816927753728  C 19.2452946991342 25.9816927753728  19.8479018246753 26.5606386531987  19.8479018246753 27.4164716883117  Z " fill-rule="nonzero" fill="#566684" stroke="none" transform="matrix(1 0 0 1 687 226 )" />
  </g>
</svg>