<?xml version="1.0" encoding="utf-8"?>
<svg version="1.1" xmlns:xlink="http://www.w3.org/1999/xlink" width="36px" height="42px" xmlns="http://www.w3.org/2000/svg">
  <g transform="matrix(1 0 0 1 -414 -445 )">
    <path d="M 7.6171875 16.9921875  C 10.8359375 17.6640625  14.296875 18  18 18  C 21.703125 18  25.1640625 17.6640625  28.3828125 16.9921875  C 31.6015625 16.3203125  34.140625 15.328125  36 14.015625  L 36 18  C 36 19.078125  35.1953125 20.078125  33.5859375 21  C 31.9765625 21.921875  29.7890625 22.65234375  27.0234375 23.19140625  C 24.2578125 23.73046875  21.25 24  18 24  C 14.75 24  11.7421875 23.73046875  8.9765625 23.19140625  C 6.2109375 22.65234375  4.0234375 21.921875  2.4140625 21  C 0.8046875 20.078125  0 19.078125  0 18  L 0 14.015625  C 1.859375 15.328125  4.3984375 16.3203125  7.6171875 16.9921875  Z M 7.6171875 34.9921875  C 10.8359375 35.6640625  14.296875 36  18 36  C 21.703125 36  25.1640625 35.6640625  28.3828125 34.9921875  C 31.6015625 34.3203125  34.140625 33.328125  36 32.015625  L 36 36  C 36 37.078125  35.1953125 38.078125  33.5859375 39  C 31.9765625 39.921875  29.7890625 40.65234375  27.0234375 41.19140625  C 24.2578125 41.73046875  21.25 42  18 42  C 14.75 42  11.7421875 41.73046875  8.9765625 41.19140625  C 6.2109375 40.65234375  4.0234375 39.921875  2.4140625 39  C 0.8046875 38.078125  0 37.078125  0 36  L 0 32.015625  C 1.859375 33.328125  4.3984375 34.3203125  7.6171875 34.9921875  Z M 7.6171875 25.9921875  C 10.8359375 26.6640625  14.296875 27  18 27  C 21.703125 27  25.1640625 26.6640625  28.3828125 25.9921875  C 31.6015625 25.3203125  34.140625 24.328125  36 23.015625  L 36 27  C 36 28.078125  35.1953125 29.078125  33.5859375 30  C 31.9765625 30.921875  29.7890625 31.65234375  27.0234375 32.19140625  C 24.2578125 32.73046875  21.25 33  18 33  C 14.75 33  11.7421875 32.73046875  8.9765625 32.19140625  C 6.2109375 31.65234375  4.0234375 30.921875  2.4140625 30  C 0.8046875 29.078125  0 28.078125  0 27  L 0 23.015625  C 1.859375 24.328125  4.3984375 25.3203125  7.6171875 25.9921875  Z M 8.9765625 0.808593749999998  C 11.7421875 0.269531249999999  14.75 0  18 0  C 21.25 0  24.2578125 0.269531249999999  27.0234375 0.808593749999998  C 29.7890625 1.34765625  31.9765625 2.078125  33.5859375 3  C 35.1953125 3.921875  36 4.921875  36 6  L 36 9  C 36 10.078125  35.1953125 11.078125  33.5859375 12  C 31.9765625 12.921875  29.7890625 13.65234375  27.0234375 14.19140625  C 24.2578125 14.73046875  21.25 15  18 15  C 14.75 15  11.7421875 14.73046875  8.9765625 14.19140625  C 6.2109375 13.65234375  4.0234375 12.921875  2.4140625 12  C 0.8046875 11.078125  0 10.078125  0 9  L 0 6  C 0 4.921875  0.8046875 3.921875  2.4140625 3  C 4.0234375 2.078125  6.2109375 1.34765625  8.9765625 0.808593749999998  Z " fill-rule="nonzero" fill="#37435b" stroke="none" transform="matrix(1 0 0 1 414 445 )" />
  </g>
</svg>