<?xml version="1.0" encoding="utf-8"?>
<svg version="1.1" xmlns:xlink="http://www.w3.org/1999/xlink" width="45px" height="40px" xmlns="http://www.w3.org/2000/svg">
  <g transform="matrix(1 0 0 1 -1226 -446 )">
    <path d="M 44 6  L 26.6986633371603 6  L 23.7147280137773 0.108808508158505  L 1.49196766169154 0.108808508158505  C 0.677403712208197 0.103125330225334  0.00839755070799909 0.699861499611504  0 1.44436091686091  L 0 39.8912198912199  L 44 39.8912198912199  L 44 6  Z M 2.79918886337543 4.03590085470086  C 2.80758641408343 3.4306398989899  3.44020309988518 2.94472614607615  4.2099800612323 3  L 20.9827197091466 3  L 22.3935108687333 6  L 2.79918886337543 6  L 2.79918886337543 4.03590085470086  Z M 42 9  L 42 37  L 3 37  L 3 9  L 42 9  Z M 44 6  L 26.6986633371603 6  L 23.7147280137773 0.108808508158505  L 1.49196766169154 0.108808508158505  C 0.677403712208197 0.103125330225334  0.00839755070799909 0.699861499611504  0 1.44436091686091  L 0 39.8912198912199  L 44 39.8912198912199  L 44 6  Z M 2.79918886337543 4.03590085470086  C 2.80758641408343 3.4306398989899  3.44020309988518 2.94472614607615  4.2099800612323 3  L 20.9827197091466 3  L 22.3935108687333 6  L 2.79918886337543 6  L 2.79918886337543 4.03590085470086  Z M 42 9  L 42 37  L 3 37  L 3 9  L 42 9  Z M 28.0506715652507 30.3718571872572  C 28.0506715652507 30.9685933566434  27.6755802525832 31.3664174825175  27.1157424799082 31.3664174436674  C 26.553105510907 31.3664174436674  26.1780141982396 30.9685933177933  26.1780141982396 30.3718571872572  L 26.1780141982396 28.3827365967366  C 26.1780141982396 26.6919841103341  24.9603670493685 25.3990557498058  23.3704277841561 25.3990557498058  L 15.8797983926521 25.3990557498058  C 14.2842607347876 25.3990557498058  13.0694127822426 26.6919841103341  13.0694127822426 28.3827365967366  L 13.0694127822426 30.3718571872572  C 13.0694127822426 30.9685933566434  12.6943214695752 31.3664174825175  12.1344836969001 31.3664174436674  C 11.571846727899 31.3664174436674  11.1967554152315 30.9685933177933  11.1967554535017 30.3718571872572  L 11.1967554535017 28.3827365967366  C 11.1967554535017 25.5979677933178  13.2569584385764 23.4099351592852  15.8797983926521 23.4099351981352  L 23.3704277841561 23.4099351981352  C 25.9904685419059 23.4099351981352  28.0506715652507 25.5979678321678  28.0506715652507 28.3827365967366  L 28.0506715652507 30.3718571872572  Z M 19.6251130884041 24.2624154234654  L 19.6223138920781 24.2624154234654  C 16.9994739380023 24.2624154234654  14.9392709146575 22.0743827894328  14.9392709529277 19.289613986014  C 14.9392709911979 16.5048451825952  17.0022731343284 14.3168125874126  19.6251130884041 14.3168125874126  C 22.2451538461538 14.3168125874126  24.3053568694987 16.5048452214452  24.3053568694987 19.289613986014  C 24.3053568694987 22.0743827505827  22.245153884424 24.2624154234654  19.6251130884041 24.2624154234654  Z M 19.6251130884041 16.3059331390831  L 19.6223138920781 16.3059331390831  C 18.0267762342135 16.3059331390831  16.8119282816686 17.5988614996115  16.8119282816686 19.289613986014  C 16.8119282816686 20.9803664724165  18.0323746268657 22.2732948717949  19.6251130884041 22.2732948717949  C 21.2150523536165 22.2732948717949  22.4326995024876 20.9803665112665  22.4326995024876 19.289613986014  C 22.4326995024876 17.5988614607615  21.2178515499426 16.3059331390831  19.6251130884041 16.3059331390831  Z M 32.7309153463452 31.3664174436675  C 32.1710775736701 31.3664174436675  31.7931870646766 30.9685933177933  31.7931870646766 30.3718571872572  L 31.7931870646766 28.3827365967366  C 31.7931870646766 26.9903522144522  30.9534304247991 25.7968798756799  29.637811634137 25.4985117715618  C 29.1731462686567 25.3990557498058  28.8904282051282 24.8023195804196  28.9856006505932 24.3050394327894  C 29.0779738997321 23.8077592851593  29.6406108304631 23.5093912198912  30.1080753539992 23.6088472416473  C 32.1682783390739 24.2055834110334  33.5734711442786 26.194703962704  33.5734711825488 28.4821926184926  L 33.5734711825488 30.4713132090132  C 33.6658444316877 30.9685933566434  33.2935523153463 31.3664174825175  32.7309153463452 31.3664174436675  Z M 27.8127404898584 24.2993562548562  L 27.6335924225029 24.3561882672883  C 27.2752962495216 24.4670106837607  26.8330244163796 24.2908314296814  26.5391095675469 23.9668889277389  C 26.2172028319939 23.546332012432  26.4019493302717 22.8643478243978  26.8218276693456 22.6313365578866  C 27.7203672789897 22.0402836052836  28.1794342518178 20.9604752913753  28.1626391121317 19.9261325951826  C 28.0618683122847 18.2950537296037  26.6790690011481 16.9566597513597  25.1311175660161 17.0191749417249  C 24.6552554535017 17.0646405594406  24.1234095675469 16.6043012043512  24.1625982395714 16.0729218725719  C 24.1066144661309 15.5699585470085  24.5292919632606 15.0215295648796  25.0359451588213 15.0726783993784  C 27.535620818982 14.9220735431235  29.8589475698431 17.1129477855478  30.0073045924225 19.8749837606838  C 30.0815047407415 21.6364137151885  29.2508904602802 23.310981786108  27.8127404898584 24.2993562548562  Z " fill-rule="nonzero" fill="#566684" stroke="none" transform="matrix(1 0 0 1 1226 446 )" />
  </g>
</svg>