<?xml version="1.0" encoding="utf-8"?>
<svg version="1.1" xmlns:xlink="http://www.w3.org/1999/xlink" width="40px" height="45px" xmlns="http://www.w3.org/2000/svg">
  <g transform="matrix(1 0 0 1 -944 -444 )">
    <path d="M 33.2453304597701 28.8017578125  C 31.3595545977011 27.2724609375  29.2403017241379 26.05078125  26.9594109195402 25.224609375  C 31.090158045977 22.904296875  33.8559626436782 18.5361328125  33.8559626436782 13.5  C 33.8559626436782 5.994140625  27.7316810344828 0.0087890625  20.0718390804598 0.0087890625  C 12.4119971264368 0.0087890625  6.27873563218391 6.01171875  6.27873563218391 13.5087890625  C 6.27873563218391 18.52734375  9.02658045977011 22.8779296875  13.1483477011494 25.20703125  C 5.54238505747126 27.94921875  0.145474137931034 35.0771484375  0.145474137931034 43.4970703125  C 0.145474137931034 44.40234375  0.765086206896552 45  1.68103448275862 45  C 2.59698275862069 45  3.21659482758621 44.40234375  2.90229885057471 43.1982421875  C 2.90229885057471 34.857421875  9.47557471264368 27.80859375  17.7550287356322 26.82421875  C 18.5093390804598 26.947265625  19.2816091954023 27.0087890625  20.0718390804598 27.0087890625  C 20.78125 27.0087890625  21.4727011494253 26.9560546875  22.1461925287356 26.859375  C 25.5226293103448 27.3076171875  28.6117097701149 28.7138671875  31.0991379310345 30.90234375  C 31.7097701149425 31.5  32.6346982758621 31.5  33.2453304597701 30.90234375  C 33.8559626436782 30.3046875  33.8559626436782 29.3994140625  33.2453304597701 28.8017578125  Z M 20.0718390804598 24.0029296875  C 14.2528735632184 24.0029296875  9.34087643678161 19.2041015625  9.34087643678161 13.5  C 9.34087643678161 7.8046875  14.2438936781609 2.9970703125  20.0718390804598 2.9970703125  C 25.8908045977011 2.9970703125  30.8028017241379 7.7958984375  30.8028017241379 13.5  C 30.7938218390805 19.2041015625  25.8908045977011 24.0029296875  20.0718390804598 24.0029296875  Z M 11.0650143678161 43.998046875  L 11.0650143678161 35.9912109375  C 11.100933908046 35.296875  11.4601293103448 34.927734375  12.1336206896552 34.892578125  C 12.510775862069 34.927734375  12.8071120689655 35.0947265625  13.0316091954023 35.384765625  L 17.5754310344828 41.3173828125  L 17.6293103448276 41.3173828125  L 17.6293103448276 35.9912109375  C 17.6652298850575 35.296875  18.0244252873563 34.927734375  18.6979166666667 34.892578125  C 19.371408045977 34.927734375  19.7306034482759 35.296875  19.7665229885057 35.9912109375  L 19.7665229885057 44.0068359375  C 19.7306034482759 44.666015625  19.371408045977 44.9912109375  18.6979166666667 44.9912109375  C 18.3207614942529 44.9912109375  18.0244252873563 44.859375  17.7999281609195 44.6044921875  L 13.2561063218391 38.724609375  L 13.2022270114943 38.724609375  L 13.2022270114943 43.998046875  C 13.1663074712644 44.6572265625  12.8071120689655 44.982421875  12.1336206896552 44.982421875  C 11.4601293103448 44.982421875  11.100933908046 44.6572265625  11.0650143678161 43.998046875  Z M 20.9967672413793 43.9365234375  L 20.9967672413793 36.2109375  C 20.9967672413793 35.40234375  21.3559626436782 35.0068359375  22.0653735632184 35.0068359375  L 25.6573275862069 35.0068359375  C 26.2948994252874 35.0419921875  26.6271551724138 35.3583984375  26.6630747126437 35.9384765625  C 26.6271551724138 36.5625  26.2859195402299 36.8876953125  25.6573275862069 36.9228515625  L 23.1339798850575 36.9228515625  L 23.1339798850575 38.953125  L 25.4867097701149 38.953125  C 26.1242816091954 38.98828125  26.4744971264368 39.322265625  26.555316091954 39.9375  C 26.4834770114943 40.5615234375  26.1242816091954 40.88671875  25.4867097701149 40.921875  L 23.1339798850575 40.921875  L 23.1339798850575 43.06640625  L 25.774066091954 43.06640625  C 26.4116379310345 43.06640625  26.7438936781609 43.3740234375  26.7798132183908 43.998046875  C 26.7438936781609 44.6220703125  26.402658045977 44.947265625  25.774066091954 44.982421875  L 22.0653735632184 44.982421875  C 21.391882183908 44.947265625  21.0326867816092 44.595703125  20.9967672413793 43.9365234375  Z M 28.9619252873563 44.015625  L 27.1120689655172 36.3251953125  C 27.0761494252874 36.17578125  27.0581896551724 36.017578125  27.0581896551724 35.8330078125  C 27.1300287356322 35.244140625  27.4712643678161 34.9365234375  28.0639367816092 34.9013671875  C 28.7015086206897 34.8662109375  29.0966235632184 35.208984375  29.2403017241379 35.947265625  L 30.4166666666667 41.8798828125  L 30.4705459770115 41.8798828125  L 32.3204022988506 35.7275390625  C 32.5448994252874 35.2177734375  32.9220545977011 34.9365234375  33.4428879310345 34.9013671875  C 33.9996408045977 34.9013671875  34.3767959770115 35.173828125  34.5653735632184 35.7275390625  L 36.4152298850575 41.8798828125  L 36.4691091954023 41.8798828125  L 37.6993534482759 35.947265625  C 37.8071120689655 35.2529296875  38.1842672413793 34.9013671875  38.8218390804598 34.9013671875  C 39.4234913793103 34.9365234375  39.7557471264368 35.2529296875  39.8275862068966 35.8330078125  C 39.8275862068966 36.017578125  39.8096264367816 36.1845703125  39.7737068965517 36.3251953125  L 37.9777298850575 44.015625  C 37.7532327586207 44.6748046875  37.2862787356322 45  36.576867816092 45  C 35.8315373563218 45  35.3466235632184 44.6923828125  35.1221264367816 44.068359375  L 33.4428879310345 38.6279296875  L 31.7636494252874 44.068359375  C 31.5391522988506 44.6923828125  31.0721982758621 45  30.3627873563218 45  C 29.6174568965517 45  29.1505028735632 44.6748046875  28.9619252873563 44.015625  Z " fill-rule="nonzero" fill="#566684" stroke="none" transform="matrix(1 0 0 1 944 444 )" />
  </g>
</svg>