<?xml version="1.0" encoding="utf-8"?>
<svg version="1.1" xmlns:xlink="http://www.w3.org/1999/xlink" width="40px" height="40px" xmlns="http://www.w3.org/2000/svg">
  <g transform="matrix(1 0 0 1 -418 -667 )">
    <path d="M 39.8204385849491 39.8887086906276  L 0 39.8887086906276  L 0 37.548758878541  L 3 37.548758878541  L 3 4.79119093354569  C 2.98653288441113 2.20738826682723  4.76926331179023 0.111291309372361  6.96857675322609 0.111291309372361  L 20.9057302596783 0.111291309372361  C 23.1050437011141 0.111291309372361  24.8877741284932 2.20738826682723  24.8877741284932 4.79119093354569  L 24.8877741284932 14.1509901818923  L 32.851861831723 14.1509901818923  C 35.0511752731588 14.1509901818923  36.8339057005379 16.2453576762841  36.8339057005379 18.8308898060657  L 36.8339057005379 37.548758878541  L 39.8204385849491 37.548758878541  L 39.8204385849491 39.8887086906276  Z M 22.8967521940858 37  L 22.8967521940858 4.79119093354569  C 22.8967521940858 3.49756013712332  22.0053869975963 2.45124112145902  20.9057302596783 3  L 6.96857675322609 3  C 5.86892001530808 2.45124112145902  4.97755481881861 3.49756013712332  5 4.79119093354569  L 5 37  L 22.8967521940858 37  Z M 34.8428837661305 37.548758878541  L 34.8428837661305 18.8308898060657  C 34.8428837661305 17.5372590096433  33.951518569641 16.490939993979  32.851861831723 16.490939993979  L 24.8877741284932 16.490939993979  L 24.8877741284932 37.548758878541  L 34.8428837661305 37.548758878541  Z M 32.851861831723 22.3399498120867  L 32.851861831723 24.6798996241733  L 26.8787960629007 24.6798996241733  L 26.8787960629007 22.3399498120867  L 32.851861831723 22.3399498120867  Z M 32.851861831723 29.3597992483467  L 32.851861831723 31.6997490604333  L 26.8787960629007 31.6997490604333  L 26.8787960629007 29.3597992483467  L 32.851861831723 29.3597992483467  Z M 12.9416425564485 10.6402007516533  L 12.9416425564485 12.98015056374  L 6.96857675322609 12.98015056374  L 6.96857675322609 10.6402007516533  L 12.9416425564485 10.6402007516533  Z M 12.9416425564485 17.6600501879133  L 12.9416425564485 20  L 6.96857675322609 20  L 6.96857675322609 17.6600501879133  L 12.9416425564485 17.6600501879133  Z M 12.9416425564485 24.6798996241733  L 12.9416425564485 27.01984943626  L 6.96857675322609 27.01984943626  L 6.96857675322609 24.6798996241733  L 12.9416425564485 24.6798996241733  Z M 20.9057302596783 10.6402007516533  L 20.9057302596783 12.98015056374  L 14.932664490856 12.98015056374  L 14.932664490856 10.6402007516533  L 20.9057302596783 10.6402007516533  Z M 20.9057302596783 17.6600501879133  L 20.9057302596783 20  L 14.932664490856 20  L 14.932664490856 17.6600501879133  L 20.9057302596783 17.6600501879133  Z M 20.9057302596783 24.6798996241733  L 20.9057302596783 27.01984943626  L 14.932664490856 27.01984943626  L 14.932664490856 24.6798996241733  L 20.9057302596783 24.6798996241733  Z " fill-rule="nonzero" fill="#566684" stroke="none" transform="matrix(1 0 0 1 418 667 )" />
  </g>
</svg>