<?xml version="1.0" encoding="utf-8"?>
<svg version="1.1" xmlns:xlink="http://www.w3.org/1999/xlink" width="40px" height="40px" xmlns="http://www.w3.org/2000/svg">
  <g transform="matrix(1 0 0 1 -412 -226 )">
    <path d="M 39.9947062421086 28.2456259664948  C 39.9946658380682 23.0970342300258  36.7243174715909 18.7231337387242  32 17.2127763369845  L 32 1.97453056539948  C 32.2129519412879 0.974795989046392  31.4536283933081 0.164417606314433  30.5185855823864 0.164417606314433  L 1.70204237689394 0.164417606314433  C 0.76594977114899 0.164417606314433  0.0077163825757576 0.974260269007732  0 1.97453056539948  L 0 38.0321865737758  C 0.0077163825757576 39.0318799130155  0.76594977114899 39.8422582957474  1.70204237689394 39.8422582957474  L 22.213993844697 39.8422582957474  C 22.5263880997475 39.7747164545747  23.0796291824495 39.5787256362758  23.6609723800505 38.9964812338918  L 23.9270142440025 38.7218220844072  C 25.388770636048 39.439727086018  27.0231776751894 39.8422582957474  28.7472612847222 39.8422582957474  C 34.9485921322601 39.8422582957474  39.9947062421086 34.6389408021907  39.9947062421086 28.2456259664948  Z M 21.6218297032828 37.6678974710052  L 21.6217892992424 37  L 3.06439141414141 37  C 2.55023496685606 37.6678974710052  2.13261912089646 37.2228383940077  2.13261912089646 36.6737261597938  L 2.13261912089646 3.33290854542526  C 2.13261912089646 2.78375511436856  2.55023496685606 2.33980867429124  3.06439141414141 3  L 29.1561153724747 3  C 29.6714023832071 2.33980867429124  30.0879684343434 2.78375511436856  30 3.33290854542526  L 30 16.7310823131443  C 29.6481454387626 16.6769746697809  29.2008931107955 16.6483342864046  28.7472208806818 16.6483342864046  C 26.5167331518308 16.6483342864046  24.4359620817551 17.3210328205541  22.6856336805556 19  L 8.86441860006313 19  C 8.41962926136364 18.4800408344072  8.05950978535354 18.8690966494845  8.05950978535354 19.3501725193299  L 8.05950978535354 19.7829924693943  C 8.05950978535354 20.2640271423969  8.41962926136364 20.6543192251933  8.86441860006313 20  L 20.2504362373737 20  C 18.5376581044823 22.689887564433  17.4998566919192 25.3448709729381  17.4998566919192 28.2455847293814  C 17.4998566919192 31.8537363482603  19.1069287010732 35.0825987032861  21.6218296638258 37.2112585776418  L 21.6218297032828 37.6678974710052  Z M 38.2645257654672 28.2455435325387  C 38.2645257260101 33.6558547438789  33.9951779513889 38.0576125966495  28.7472612847222 38.0576125966495  C 23.4993446180556 38.0576125966495  19.2299968039773 33.6558547036083  19.2299968039773 28.2455435325387  C 19.2299968039773 22.8330070473583  23.4993446180556 18.4318261114691  28.7472612847222 18.4318261114691  C 33.9940473879419 18.4318261114691  38.2645257654672 22.8340372905928  38.2645257654672 28.2455435325387  Z M 34.0656352588384 24.8666797680412  C 34.3714480744949 24.4880910921392  34.3216232638889 23.9257094877577  33.9538725931187 23.6102120650773  C 33.5861622869318 23.2946734052835  33.040552438447 23.3467206024485  32.7346991792929 23.7253917123067  L 26.581133956755 31.350902021585  L 23.3855228061869 28.2886895538015  C 23.0351744791667 27.9544007329253  22.4873439078283 27.9753762081186  22.1619079861111 28.335132288982  C 21.8364720643939 28.6960834407217  21.8571449258207 29.2607315560567  22.2074932528409 29.5972456507732  L 26.0723880208333 33.2971288659794  C 26.2317950994318 33.4509627094072  26.4433284406566 33.5362657055412  26.6603126578283 33.5362657055412  C 26.6787244318182 33.5362657055412  26.698266729798 33.5351530686211  26.7155883049242 33.5339991945876  C 26.953164614899 33.5185045505799  27.1733789457071 33.4023358972294  27.3251951941288 33.214092380799  L 34.0656352588384 24.8666797680412  Z M 16.5344102746212 27.1970997503222  C 16.5344102746212 26.7144166800902  16.1894724195076 26.3225586742912  15.7643061474116 26.3225586742912  L 8.8297350457702 26.3225586742912  C 8.40343821022727 26.3225586742912  8.05950978535354 26.7144167203608  8.05950978535354 27.1970997503222  L 8.05950978535354 27.636677996134  C 8.05950978535354 28.1182896262887  8.40452836963384 28.5101888289304  8.8297350457702 28.5101888289304  L 15.7643061474116 28.5101888289304  C 16.1894724195076 28.5101888289304  16.5344102746212 28.1193198292526  16.5344102746212 27.636677996134  L 16.5344102746212 27.1970997503222  Z M 8.05950978535354 11.5014733408505  C 8.05950978535354 11.9830437338918  8.41962926136364 12.3749841736469  8.86441860006313 13  L 23.3562497238005 13  C 23.8009582938763 12.3749841736469  24.1611585385101 11.9841975676546  24.1611585385101 11.5014733408505  L 24.1611585385101 11.0614005718428  C 24.16216796875 10.5792944587629  23.8009582938763 10.1873540190077  23.3562497238005 10.1873540190077  L 8.86441860006313 10.1873540190077  C 8.41962926136364 10.1873540190077  8.05950978535354 10.5787587387242  8.05950978535354 11.0614005718428  L 8.05950978535354 11.5014733408505  Z " fill-rule="nonzero" fill="#566684" stroke="none" transform="matrix(1 0 0 1 412 226 )" />
  </g>
</svg>