<?xml version="1.0" encoding="utf-8"?>
<svg version="1.1" xmlns:xlink="http://www.w3.org/1999/xlink" width="40px" height="40px" xmlns="http://www.w3.org/2000/svg">
  <g transform="matrix(1 0 0 1 -1228 -226 )">
    <path d="M 7.5 2.95454545454545  L 7.5 2.94122869318182  L 10.3409090909091 2.94122869318182  L 10.3409090909091 2.95454545454545  L 7.5 2.95454545454545  Z M 17.3499644886364 2.95454545454545  L 17.3499644886364 2.94122869318182  L 20.1908735795455 2.94122869318182  L 20.1908735795455 2.95454545454545  L 17.3499644886364 2.95454545454545  Z M 17.3499644886364 2.94122869318182  L 20 2.94122869318182  L 20 18.095703125  L 13.8432173295455 13.3371803977273  L 8 18.095703125  L 8 2.94122869318182  L 10.3409090909091 2.94122869318182  L 10.3409090909091 2.95454545454545  L 17.3499644886364 2.95454545454545  L 17.3499644886364 2.94122869318182  Z M 39.8863636363636 31.3636363636364  L 37.0942826704545 31.3636363636364  L 34.9591619318182 27.7459161931818  L 34.453125 26.8936434659091  C 34.111328125 27.2265625  33.7295809659091 27.5150923295455  33.3167613636364 27.763671875  C 33.28125 27.7858664772727  33.2457386363636 27.8036221590909  33.2102272727273 27.8258167613636  C 33.1880326704545 27.8391335227273  33.1613991477273 27.8524502840909  33.1392045454545 27.8657670454545  C 33.0770596590909 27.9012784090909  33.0193536931818 27.9323508522727  32.9572088068182 27.9634232954545  C 32.9261363636364 27.9767400568182  32.8995028409091 27.9944957386364  32.8684303977273 28.0078125  C 32.8373579545455 28.0211292613636  32.8062855113636 28.0388849431818  32.7752130681818 28.0522017045455  C 32.5266335227273 28.1676136363636  32.2736150568182 28.2697088068182  32.0072798295455 28.349609375  L 33.7872869318182 31.3680752840909  L 26.7294034090909 31.3680752840909  L 28.4206321022727 28.3984375  C 28.3362926136364 28.3718039772727  28.251953125 28.349609375  28.1676136363636 28.3185369318182  C 28.1099076704545 28.30078125  28.0522017045455 28.2785866477273  27.9944957386364 28.2563920454545  C 27.9900568181818 28.2563920454545  27.9900568181818 28.251953125  27.9856178977273 28.251953125  C 27.9545454545455 28.2386363636364  27.9234730113636 28.2297585227273  27.8924005681818 28.2164417613636  C 27.861328125 28.203125  27.8346946022727 28.1942471590909  27.8036221590909 28.1809303977273  L 27.7991832386364 28.1809303977273  C 27.7414772727273 28.1587357954545  27.6837713068182 28.1321022727273  27.6216264204545 28.10546875  C 27.5949928977273 28.0921519886364  27.5727982954545 28.0832741477273  27.5461647727273 28.0699573863636  C 27.4840198863636 28.0388849431818  27.4174360795455 28.0122514204546  27.3552911931818 27.9767400568182  C 27.3286576704545 27.9634232954545  27.2975852272727 27.9501065340909  27.2665127840909 27.9323508522727  C 27.2398792613636 27.9190340909091  27.2088068181818 27.9012784090909  27.1821732954545 27.8879616477273  C 27.1555397727273 27.8746448863636  27.1244673295455 27.8568892045455  27.0978338068182 27.8435724431818  C 26.6805752840909 27.6083096590909  26.2899502840909 27.3286576704545  25.9392755681818 27.0046164772727  L 23.4534801136364 31.3680752840909  L 20.3995028409091 31.3680752840909  L 20.3995028409091 37  L 3.99769176136364 37  C 3.42507102272727 37.0498934659091  2.95454545454545 36.5838068181818  2.95454545454545 36.0067471590909  L 2.95454545454545 31.6166548295455  C 3.86452414772727 32.1803977272727  4.93874289772727 32.5044389204545  6.08842329545455 32  L 18.6372514204545 32  C 18.6772017045455 32.5044389204545  18.7127130681818 32.4689275568182  18.7127130681818 32.4289772727273  L 18.7127130681818 29.7389914772727  C 18.7127130681818 29.6990411931818  18.6772017045455 29.6635298295455  18.6372514204545 29  L 6.19939630681818 29  C 4.40607244318182 29.6635298295455  2.95454545454545 28.2075639204545  3 26.4186789772727  L 3 4.04208096590909  C 2.95454545454545 3.43838778409091  3.44282670454545 2.95454545454545  4.04208096590909 2.95454545454545  L 7.5 2.95454545454545  L 7.5 2.94122869318182  L 10.3409090909091 2.94122869318182  L 10.3409090909091 2.95454545454545  L 17.3499644886364 2.95454545454545  L 17.3499644886364 2.94122869318182  L 20.1908735795455 2.94122869318182  L 20.1908735795455 3  L 31.03515625 3  C 31.6388494318182 2.95454545454545  32.1226917613636 3.44282670454545  32 4.04208096590909  L 32 16.5243252840909  C 33.2501775568182 16.9016335227273  34.2311789772727 17.5941051136364  35 18.4907670454545  L 35 4.04208096590909  C 34.9636008522727 1.87144886363636  33.2057883522727 0.113636363636364  31.03515625 0.113636363636364  L 4.04651988636364 0.113636363636364  C 1.87144886363636 0.113636363636364  0.113636363636364 1.87144886363636  0.113636363636364 4.04208096590909  L 0.113636363636364 36.0023082386364  C 0.113636363636364 38.1418678977273  1.85369318181818 39.8863636363636  3.99769176136364 39.8863636363636  L 39.8863636363636 39.8863636363636  L 39.8863636363636 31.3636363636364  Z M 37.0454545454545 34  L 37.0454545454545 37  L 23.2404119318182 37  L 23.2404119318182 34  L 37.0454545454545 34  Z M 34.9502840909091 18.4907670454545  C 35.8336292613636 19.5649857954545  36.357421875 20.9321732954545  36.357421875 22.4192116477273  C 36.357421875 23.9106889204545  35.8336292613636 25.2778764204545  34.9591619318182 26.34765625  C 34.8037997159091 26.5385298295455  34.6351207386364 26.7249644886364  34.453125 26.8936434659091  C 34.111328125 27.2265625  33.7295809659091 27.5150923295455  33.3167613636364 27.763671875  C 33.28125 27.7858664772727  33.2457386363636 27.8036221590909  33.2102272727273 27.8258167613636  C 33.1880326704545 27.8391335227273  33.1613991477273 27.8524502840909  33.1392045454545 27.8657670454545  C 33.0770596590909 27.9012784090909  33.0193536931818 27.9323508522727  32.9572088068182 27.9634232954545  C 32.9261363636364 27.9767400568182  32.8995028409091 27.9944957386364  32.8684303977273 28.0078125  C 32.8373579545455 28.0211292613636  32.8062855113636 28.0388849431818  32.7752130681818 28.0522017045455  C 32.5266335227273 28.1676136363636  32.2736150568182 28.2697088068182  32.0072798295455 28.349609375  C 31.9717684659091 28.3629261363636  31.9318181818182 28.3718039772727  31.8963068181818 28.3851207386364  C 31.8607954545455 28.3984375  31.8208451704545 28.4073153409091  31.7853338068182 28.4161931818182  C 31.7542613636364 28.4250710227273  31.7276278409091 28.4339488636364  31.6965553977273 28.4383877840909  C 31.6743607954545 28.4428267045455  31.6521661931818 28.4517045454545  31.6255326704545 28.4561434659091  C 31.5988991477273 28.4650213068182  31.5678267045455 28.4694602272727  31.5411931818182 28.4738991477273  C 31.5145596590909 28.4783380681818  31.4879261363636 28.4872159090909  31.4568536931818 28.4916548295455  C 31.4479758522727 28.4916548295455  31.4390980113636 28.49609375  31.4346590909091 28.49609375  C 31.4035866477273 28.5005326704545  31.3725142045455 28.5094105113636  31.3414417613636 28.5138494318182  C 31.3370028409091 28.5138494318182  31.328125 28.5138494318182  31.3236860795455 28.5182883522727  C 31.2881747159091 28.5271661931818  31.2482244318182 28.5316051136364  31.2127130681818 28.5404829545455  C 31.1727627840909 28.544921875  31.1372514204545 28.5537997159091  31.0973011363636 28.5582386363636  C 31.0129616477273 28.5715553977273  30.9286221590909 28.5848721590909  30.8442826704545 28.59375  C 30.8176491477273 28.5981889204545  30.7865767045455 28.5981889204545  30.7599431818182 28.6026278409091  C 30.7377485795455 28.6070667613636  30.7155539772727 28.6070667613636  30.693359375 28.6070667613636  C 30.6622869318182 28.6115056818182  30.6356534090909 28.6115056818182  30.6045809659091 28.6159446022727  C 30.5735085227273 28.6203835227273  30.5379971590909 28.6203835227273  30.5069247159091 28.6203835227273  C 30.4802911931818 28.6203835227273  30.4536576704545 28.6248224431818  30.4270241477273 28.6248224431818  C 30.4048295454545 28.6248224431818  30.3826349431818 28.6292613636364  30.3604403409091 28.6292613636364  C 30.3249289772727 28.6292613636364  30.2894176136364 28.6292613636364  30.25390625 28.6337002840909  L 30.1296164772727 28.6337002840909  C 30.0408380681818 28.6337002840909  29.9564985795455 28.6337002840909  29.8677201704545 28.6292613636364  C 29.8455255681818 28.6292613636364  29.8233309659091 28.6292613636364  29.8011363636364 28.6248224431818  C 29.7523082386364 28.6203835227273  29.7034801136364 28.6203835227273  29.6546519886364 28.6159446022727  C 29.6280184659091 28.6159446022727  29.6058238636364 28.6115056818182  29.5836292613636 28.6115056818182  L 29.5747514204545 28.6115056818182  C 29.5392400568182 28.6070667613636  29.5037286931818 28.6070667613636  29.4682173295455 28.6026278409091  L 29.3616832386364 28.5893110795455  C 29.326171875 28.5848721590909  29.2906605113636 28.5804332386364  29.2595880681818 28.5759943181818  L 29.2551491477273 28.5759943181818  C 29.2196377840909 28.5715553977273  29.1841264204545 28.5671164772727  29.1486150568182 28.5582386363636  L 29.0687144886364 28.544921875  C 29.0509588068182 28.5404829545455  29.0376420454545 28.5404829545455  29.0198863636364 28.5360440340909  C 28.9888139204545 28.5316051136364  28.9621803977273 28.5271661931818  28.9311079545455 28.5182883522727  C 28.8955965909091 28.5138494318182  28.8600852272727 28.5049715909091  28.8245738636364 28.49609375  C 28.7890625 28.4872159090909  28.7535511363636 28.4827769886364  28.7180397727273 28.4738991477273  C 28.6825284090909 28.4650213068182  28.6470170454545 28.4561434659091  28.6159446022727 28.447265625  C 28.5804332386364 28.4383877840909  28.544921875 28.4295099431818  28.5138494318182 28.4206321022727  C 28.4783380681818 28.4117542613636  28.447265625 28.4028764204545  28.4117542613636 28.3939985795455  C 28.3274147727273 28.3673650568182  28.2430752840909 28.3451704545455  28.1587357954545 28.3140980113636  C 28.1010298295455 28.2963423295455  28.0433238636364 28.2741477272727  27.9856178977273 28.251953125  C 27.9811789772727 28.251953125  27.9811789772727 28.2475142045455  27.9767400568182 28.2475142045455  C 27.9456676136364 28.2341974431818  27.9145951704545 28.2253196022727  27.8835227272727 28.2120028409091  C 27.8524502840909 28.1986860795455  27.8258167613636 28.1898082386364  27.7947443181818 28.1764914772727  L 27.7903053977273 28.1764914772727  C 27.7325994318182 28.154296875  27.6748934659091 28.1276633522727  27.6127485795455 28.1010298295455  C 27.5861150568182 28.0877130681818  27.5639204545455 28.0788352272727  27.5372869318182 28.0655184659091  C 27.4751420454545 28.0344460227273  27.4085582386364 28.0078125  27.3464133522728 27.9723011363636  C 27.3197798295455 27.958984375  27.2887073863636 27.9456676136364  27.2576349431818 27.9279119318182  C 27.2310014204545 27.9145951704545  27.1999289772728 27.8968394886364  27.1732954545455 27.8835227272727  C 27.1466619318182 27.8702059659091  27.1155894886364 27.8524502840909  27.0889559659091 27.8391335227273  C 26.6716974431818 27.6038707386364  26.2810724431818 27.32421875  25.9303977272727 27.0001775568182  C 24.6919389204545 25.8638139204545  23.9151278409091 24.2302911931818  23.9151278409091 22.4192116477273  C 23.9151278409091 18.9834872159091  26.6983309659091 16.2047230113636  30.1296164772727 16.2047230113636  C 30.8220880681818 16.2047230113636  31.4879261363636 16.3156960227273  32.109375 16.5243252840909  C 33.2368607954545 16.9016335227273  34.2178622159091 17.5941051136364  34.9502840909091 18.4907670454545  Z " fill-rule="nonzero" fill="#566684" stroke="none" transform="matrix(1 0 0 1 1228 226 )" />
  </g>
</svg>