<?xml version="1.0" encoding="utf-8"?>
<svg version="1.1" xmlns:xlink="http://www.w3.org/1999/xlink" width="40px" height="50px" xmlns="http://www.w3.org/2000/svg">
  <g transform="matrix(1 0 0 1 -954 -221 )">
    <path d="M 19.8945553019663 49.7512437810945  L 19.8848448911517 49.7512437810945  C 19.0475886084501 49.6657325086166  18.2312873331198 49.412816837076  17.4755809778792 49.0047784514925  C 17.3357855324773 48.9296926010098  17.1916048702538 48.8650534031668  17.0440065835674 48.8112946497979  C 14.7644055399052 47.9132053697713  12.5993519397792 46.6924048692366  10.6027591731039 45.1792930853545  C 4.07982592563355 40.3906806008564  0.120702778956533 32.3387500820259  0 23.6751205398787  L 0 8.22388589280161  C 0.0287946740877743 7.85945538364212  0.168454634148541 7.51204252603454  0.413288316362361 7.26841029228857  C 0.670230561950529 7.02529714180855  1.0060557516737 6.90958502768966  1.34225215063202 6.94832599696829  C 1.42748810568821 6.94832599696829  10.063291213132 7.66493270949938  19.4101130617978 0.25163644667289  C 19.8371451804736 -0.0801341358654204  20.4061974283747 -0.0801341358654204  20.8332295470506 0.25163644667289  C 20.9281759129213 0.329268841340177  30.4702852001405 7.6804591787158  38.6594088395365 6.94832599696829  C 38.9945087030711 6.92015406892135  39.325446288667 7.04485513681407  39.5754254301264 7.29349152674129  C 39.8227900269013 7.52980931916564  39.9672471361147 7.87178861059782  40 8.23344065803793  L 40 25.0378675956157  C 39.9724738412921 25.1573020638993  40.6198354108146 43.8141572897232  20.4340232619382 49.6736113864272  C 20.2582147214899 49.7264595540174  20.0767267679061 49.7525766647365  19.8945553019663 49.7512437810945  Z M 2.52260805828652 9.48391931941853  L 3 9.48153062810946  L 3 23.7085622182058  C 2.59631752052121 31.4947785387235  6.13618507612224 38.7391956209684  11.9827181794242 43.0688863786536  C 13.8091349233711 44.4492647214266  15.7897085402305 45.5613357706492  17.8747872629916 46.3772205865205  L 18.4261235077247 46.6232555484297  C 18.8969806599488 46.8619925512218  19.3901470554449 47.0426301409882  19.8967131759129 47.1619049284826  C 38.0627572419242 41.8685701375933  37.568604590941 25.7735838386194  37 25.0856413732121  L 37 9.53885917094216  L 37.4833686797753 9.53885917094216  C 30.0635263342697 9.53885917094216  22.3858183374298 4.62771464940921  20.0369748507725 2.93891154578669  C 14.9036663600526 6.97176039810308  8.81370153878157 9.24754162209021  2.52260805828652 9.48391931941853  Z M 17.4183973402388 35.8335474483054  L 17.4183973402388 35.8359361396144  C 16.9677390294239 35.6293329963866  16.698353762294 35.113725885227  16.7613254037921 34.5782914043066  L 17.717262596559 27.12677612912  L 13.5924906074438 27.12677612912  C 13.587946880262 27.1268400022015  13.5834028325159 27.1268719397078  13.578858738974 27.1268719397078  C 12.9859582744063 27.1268719397078  12.5053174819515 26.5948193211944  12.5053174819515 25.9384991551929  C 12.5053174819515 25.7664895447675  12.5390501820865 25.5965300955168  12.6041853054775 25.4403617168066  L 16.8983502457865 14.5348021610697  C 17.0687680088522 14.1025222440709  17.4530405219799 13.8217458308115  17.8791030108848 13.8181954971237  L 24.8371607268259 13.8181954971237  C 25.4283813909346 13.825385385919  25.9042441988403 14.3579677402672  25.9042441988403 15.0124679184393  C 25.9042441988403 15.1955629083311  25.8662159192438 15.3762067118506  25.7930979634832 15.5404402304882  L 23.3115453388343 20.9293225765703  L 26.4070125087781 20.9293225765703  C 26.9988437432939 20.9355819339394  27.4756404446531 21.46844608967  27.4756404446531 22.1236125563812  C 27.4756404446531 22.3754603713334  27.4037211528585 22.6208628913741  27.2701612535112 22.8247472597948  L 18.7163572682584 35.4525515488961  C 18.5067405528993 35.7622033969004  18.1745946924106 35.9402537242197  17.8251562061096 35.9302893734453  C 17.6848483377031 35.9309511344954  17.5460773828239 35.8979463976477  17.4183973402388 35.8335474483054  Z M 15.2130523174157 24.7583910039646  L 15.2162891502809 24.7536136213464  L 18.931065528441 24.7536136213464  C 19.5247826322582 24.7536132775148  20.005423424713 25.2856658960282  20.005423424713 25.9419860620297  C 20.005423424713 25.9975284612254  20.0019057698933 26.0530025286947  19.9948963307584 26.1080002817942  L 19.2957458742977 30.8507422360852  L 24.2588510797051 23.3108454796331  L 21.5550376580056 23.3108454796331  C 21.5514525430114 23.3108860999908  21.5478672637009 23.3109064105686  21.5442819609155 23.3109064105686  C 20.963894973392 23.3109064105686  20.4933983583874 22.7900830432128  20.4933983583874 22.1476148605064  C 20.4933983583874 21.9382241947408  20.5444540556986 21.732715464808  20.6411789413624 21.5527703766325  L 23.1324419768258 16.2128561780939  L 18.5340171172753 16.2128561780939  L 15.2130523174157 24.7583910039646  Z " fill-rule="nonzero" fill="#566684" stroke="none" transform="matrix(1 0 0 1 954 221 )" />
  </g>
</svg>