<?xml version="1.0" encoding="utf-8"?>
<svg version="1.1" xmlns:xlink="http://www.w3.org/1999/xlink" width="39px" height="30px" xmlns="http://www.w3.org/2000/svg">
  <g transform="matrix(1 0 0 1 -685 -451 )">
    <path d="M 38.7932477678571 19.4977678571429  C 38.9310825892857 19.6391369047619  39 19.8065476190476  39 20  L 39 24.2857142857143  C 39 24.4791666666667  38.9310825892857 24.6465773809524  38.7932477678571 24.7879464285714  C 38.6554129464286 24.9293154761905  38.4921875 25  38.3035714285714 25  L 8.35714285714286 25  L 8.35714285714286 29.2857142857143  C 8.35714285714286 29.4791666666667  8.28822544642857 29.6465773809524  8.150390625 29.7879464285714  C 8.01255580357143 29.9293154761905  7.84933035714286 30  7.66071428571429 30  C 7.48660714285714 30  7.3125 29.9255952380952  7.13839285714286 29.7767857142857  L 0.195870535714286 22.6339285714286  C 0.0652901785714286 22.5  0 22.3363095238095  0 22.1428571428571  C 0 21.9345238095238  0.0652901785714286 21.7633928571429  0.195870535714286 21.6294642857143  L 7.16015625 14.4866071428571  C 7.29073660714286 14.3526785714286  7.45758928571429 14.2857142857143  7.66071428571429 14.2857142857143  C 7.84933035714286 14.2857142857143  8.01255580357143 14.3563988095238  8.150390625 14.4977678571429  C 8.28822544642857 14.6391369047619  8.35714285714286 14.8065476190476  8.35714285714286 15  L 8.35714285714286 19  L 38.3035714285714 19  C 38.4921875 19.2857142857143  38.6554129464286 19.3563988095238  38.7932477678571 19.4977678571429  Z M 38.8041294642857 7.34375  C 38.9347098214286 7.47767857142857  39 7.64880952380952  39 7.85714285714286  C 39 8.06547619047619  38.9347098214286 8.23660714285714  38.8041294642857 8.37053571428571  L 31.83984375 15.5133928571429  C 31.7092633928571 15.6473214285714  31.5424107142857 15.7142857142857  31.3392857142857 15.7142857142857  C 31.1506696428571 15.7142857142857  30.9874441964286 15.6436011904762  30.849609375 15.5022321428571  C 30.7117745535714 15.3608630952381  30.6428571428571 15.1934523809524  30.6428571428571 15  L 30.6428571428571 11  L 0.696428571428571 11  C 0.5078125 10.7142857142857  0.344587053571429 10.6436011904762  0.206752232142857 10.5022321428571  C 0.0689174107142857 10.3608630952381  0 10.1934523809524  0 10  L 0 5.71428571428571  C 0 5.52083333333333  0.0689174107142857 5.35342261904762  0.206752232142857 5.21205357142857  C 0.344587053571429 5.07068452380952  0.5078125 5  0.696428571428571 5  L 30.6428571428571 5  L 30.6428571428571 0.714285714285715  C 30.6428571428571 0.505952380952379  30.7081473214286 0.334821428571429  30.8387276785714 0.200892857142858  C 30.9693080357143 0.0669642857142871  31.1361607142857 0  31.3392857142857 0  C 31.5133928571429 0  31.6875 0.0744047619047616  31.8616071428571 0.223214285714285  L 38.8041294642857 7.34375  Z " fill-rule="nonzero" fill="#37435b" stroke="none" transform="matrix(1 0 0 1 685 451 )" />
  </g>
</svg>